<?xml version="1.0" standalone="no"?>
<!DOCTYPE svg PUBLIC "-//W3C//DTD SVG 20010904//EN"
 "http://www.w3.org/TR/2001/REC-SVG-20010904/DTD/svg10.dtd">
<svg version="1.0" xmlns="http://www.w3.org/2000/svg"
 width="768.000000pt" height="768.000000pt" viewBox="0 0 768.000000 768.000000"
 preserveAspectRatio="xMidYMid meet">
<metadata>
Created by potrace 1.11, written by Peter Selinger 2001-2013
</metadata>
<g transform="translate(0.000000,768.000000) scale(0.100000,-0.100000)"
fill="#000000" stroke="none">
<path d="M1818 6775 c-2 -1 -37 -6 -78 -9 -41 -3 -86 -8 -100 -11 -14 -3 -40
-6 -58 -7 -18 -1 -35 -5 -38 -10 -3 -4 -9 -6 -13 -4 -9 6 -158 -26 -251 -54
-25 -7 -49 -14 -55 -16 -5 -1 -23 -8 -40 -15 -16 -6 -36 -13 -43 -15 -44 -9
-254 -116 -343 -176 -169 -112 -359 -293 -435 -413 -10 -16 -21 -32 -25 -35
-34 -28 -188 -333 -204 -405 -1 -5 -7 -22 -13 -38 -23 -55 -75 -284 -87 -382
-2 -22 -8 -67 -12 -100 -9 -76 -9 -416 0 -475 4 -25 9 -58 11 -75 3 -16 7 -41
10 -55 3 -14 9 -41 13 -60 9 -46 10 -50 12 -52 2 -2 4 -13 7 -25 4 -25 70
-227 83 -258 5 -11 19 -41 30 -66 12 -25 21 -48 21 -52 0 -13 84 -182 92 -185
4 -2 8 -8 8 -14 0 -33 196 -317 354 -513 132 -162 217 -251 521 -542 110 -106
241 -231 291 -280 102 -99 506 -489 594 -573 100 -96 458 -441 563 -543 56
-54 176 -170 267 -257 91 -88 215 -208 277 -267 392 -379 457 -439 486 -455
23 -12 57 -17 123 -18 82 0 94 2 135 29 24 15 76 59 115 97 39 38 159 155 268
259 109 105 240 231 291 280 51 50 173 167 270 260 98 94 219 211 270 260 52
50 169 163 262 252 92 88 209 200 258 248 130 126 300 290 545 524 276 265
553 541 610 609 60 72 88 104 104 122 8 8 41 51 74 95 34 44 68 89 76 100 47
60 56 74 56 83 0 6 3 12 8 14 26 11 193 309 257 458 38 86 93 236 98 268 2 9
9 35 15 57 12 44 16 64 38 179 17 93 35 346 24 346 -3 0 -5 37 -6 83 -1 96
-14 236 -29 315 -3 15 -8 43 -11 62 -3 19 -7 42 -10 50 -3 8 -8 26 -11 40 -9
43 -11 55 -13 55 -1 0 -3 8 -6 18 -6 27 -10 41 -17 57 -3 8 -11 33 -17 55 -18
60 -81 208 -97 226 -7 8 -13 21 -13 27 0 6 -12 30 -27 54 -16 24 -32 50 -38
59 -95 153 -243 313 -390 424 -44 33 -81 63 -83 68 -2 4 -10 7 -17 7 -8 0 -20
7 -29 15 -22 22 -267 146 -276 140 -5 -3 -11 -1 -14 4 -13 21 -262 92 -421
120 -169 29 -170 29 -410 35 -184 3 -314 -6 -395 -29 -8 -2 -28 -6 -43 -9 -49
-8 -211 -58 -224 -68 -7 -6 -13 -8 -13 -5 0 8 -91 -31 -230 -98 -77 -38 -103
-52 -200 -115 -86 -55 -275 -185 -297 -204 -7 -6 -18 -15 -25 -21 -102 -78
-145 -111 -154 -120 -6 -5 -38 -33 -70 -61 -33 -29 -88 -79 -123 -112 l-65
-61 -45 42 c-25 23 -60 55 -77 72 -17 16 -42 39 -55 50 -14 11 -54 45 -89 75
-36 30 -69 58 -75 63 -5 4 -37 27 -70 52 -33 24 -64 48 -70 53 -16 13 -224
156 -253 173 -282 172 -556 277 -817 315 -36 5 -412 14 -417 9z"/>
</g>
</svg>
