<?xml version="1.0" encoding="UTF-8" standalone="no"?>
<svg width="46px" height="35px" viewBox="0 0 46 35" version="1.1" xmlns="http://www.w3.org/2000/svg" xmlns:xlink="http://www.w3.org/1999/xlink">
    <!-- Generator: Sketch 42 (36781) - http://www.bohemiancoding.com/sketch -->
    <title>Group 4</title>
    <desc>Created with Sketch.</desc>
    <defs></defs>
    <g id="Release-10" stroke="none" stroke-width="1" fill="none" fill-rule="evenodd">
        <g id="Home" transform="translate(-583.000000, -2350.000000)" stroke-width="1.5" stroke="#FFFFFF">
            <g id="Section:-Collection" transform="translate(0.000000, 1819.000000)">
                <g id="Experiences" transform="translate(545.000000, 306.000000)">
                    <g id="Group-2" transform="translate(25.000000, 205.000000)">
                        <g id="Group-3" transform="translate(14.625000, 21.375000)">
                            <g id="Group-4">
                                <path d="M9.85475386,31.9298144 C9.56939386,31.8454244 9.35450386,31.6757744 9.21704386,31.4165144 L1.85945386,18.3943544 C1.77593386,18.2742944 1.66805386,18.0855044 1.53407386,17.8279844 C1.40183386,17.5739444 1.20260386,17.1224144 0.938993861,16.4725244 C0.674513861,15.8252444 0.458753861,15.1779644 0.295193861,14.5263344 C0.126413861,13.8773144 0.0315838612,13.1230244 0.00461386121,12.2634644 C-0.0232261388,11.4030344 0.0750838612,10.6043744 0.295193861,9.86661436 C1.01642386,7.44105436 2.28053386,5.75586436 4.08665386,4.80408436 C5.89190386,3.85317436 8.02862386,3.74616436 10.4985539,4.48044436 C11.1832439,4.68489436 11.8435739,5.01027436 12.4865039,5.45658436 C13.1268239,5.90637436 13.6923239,6.42228436 14.1821339,7.00692436 C14.6762939,7.58982436 15.0895439,8.12574436 15.4253639,8.61033436 C15.7629239,9.09231436 16.0709039,9.59256436 16.3466939,10.1076044 C16.8626039,9.82746436 17.3933039,9.57690436 17.9387939,9.35766436 C18.4851539,9.13581436 19.1237339,8.91309436 19.8527939,8.69385436 C20.5862039,8.47287436 21.3413639,8.35020436 22.1234939,8.32323436 C22.9064939,8.30148436 23.6364239,8.38848436 24.3219839,8.59293436 C26.7910439,9.32721436 28.5223439,10.5852344 29.5150139,12.3687344 C30.5059439,14.1522344 30.6442739,16.2541544 29.9221739,18.6805844 C29.1983339,21.1148444 27.1990739,23.2211144 23.9226539,24.9924344 L10.6716839,31.8497744 C10.4159039,31.9907144 10.1427239,32.0159444 9.85475386,31.9298144 Z" id="Stroke-3"></path>
                                <path d="M28.8236062,21.178869 L32.8151662,23.661849 C33.0257062,23.800179 33.2579962,23.839329 33.5076862,23.786259 C33.7599862,23.732319 33.9548662,23.600949 34.0905862,23.388669 L41.2567762,12.759879 C42.9976462,10.075059 43.6370962,7.66341897 43.1803462,5.52930897 C42.7253362,3.40302897 41.7552862,1.87530897 40.2728062,0.938318973 C38.7903262,0.00219897282 36.9668062,-0.232701027 34.8022462,0.230138973 C34.2019462,0.358898973 33.6155662,0.593798973 33.0335362,0.933098973 C32.4558562,1.27500897 31.9364662,1.67868897 31.4744962,2.14761897 C31.0151362,2.61393897 30.6245062,3.04371897 30.3043462,3.43695897 C29.9833162,3.82671897 29.6866462,4.23474897 29.4125962,4.65756897 C28.9923862,4.38351897 28.5539062,4.13295897 28.1015062,3.90849897 C27.6482362,3.68142897 27.1166662,3.44826897 26.5041862,3.21162897 C25.8934462,2.97237897 25.2539962,2.81664897 24.5875762,2.74182897 C23.9176762,2.66961897 23.2869262,2.69571897 22.6857562,2.82447897 C20.5211962,3.28731897 18.9534562,4.24866897 17.9842762,5.70939897 C17.2117162,6.87432897 16.8976462,8.25153897 17.0290162,9.83754897" id="Stroke-5"></path>
                            </g>
                        </g>
                    </g>
                </g>
            </g>
        </g>
    </g>
</svg>