<?xml version="1.0" encoding="UTF-8" standalone="no"?>
<svg width="35px" height="43px" viewBox="0 0 35 43" version="1.1" xmlns="http://www.w3.org/2000/svg" xmlns:xlink="http://www.w3.org/1999/xlink">
    <!-- Generator: Sketch 42 (36781) - http://www.bohemiancoding.com/sketch -->
    <title>ico</title>
    <desc>Created with Sketch.</desc>
    <defs></defs>
    <g id="Release-10" stroke="none" stroke-width="1" fill="none" fill-rule="evenodd">
        <g id="Home" transform="translate(-977.000000, -2345.000000)" stroke="#FFFFFF" stroke-width="1.5">
            <g id="Section:-Collection" transform="translate(0.000000, 1819.000000)">
                <g id="Funds" transform="translate(931.000000, 306.000000)">
                    <g id="Group-3" transform="translate(27.000000, 205.000000)">
                        <g id="ico" transform="translate(20.250000, 15.750000)">
                            <path d="M22.9446916,1.79869505 C22.3627322,1.12898393 21.5028343,0.74055149 20.3666278,0.632609817 C20.050381,0.602669791 19.7259835,0.624730863 19.3860996,0.698005137 C19.048661,0.772855203 18.7299689,0.886312144 18.4292084,1.03916386 C18.130078,1.19043978 17.870886,1.33620043 17.6524475,1.47408213 C17.4323788,1.61038804 17.2220909,1.75930027 17.0215839,1.91845515 C16.857755,1.72463288 16.6817001,1.53947745 16.4950492,1.36377677 C16.3075833,1.1872882 16.0826242,0.995829608 15.8185418,0.790976797 C15.5560896,0.583760301 15.26674,0.413574889 14.9504932,0.276481085 C14.6326162,0.140963072 14.3179995,0.0574461572 14.0025677,0.0267182357 C12.8655462,-0.0812234375 11.944518,0.137811491 11.2386681,0.685398811 C10.5320031,1.23298613 10.1244686,2.04451842 10.0144342,3.12393515 C9.98101638,3.45248754 10.0054685,3.79679784 10.0894206,4.15607816 C10.1733727,4.51535847 10.2785166,4.82500137 10.4064825,5.08500686 C10.5328182,5.34580025 10.6811608,5.60029047 10.8506952,5.85162911 C11.0202296,6.10375565 11.1441201,6.27709264 11.2239969,6.37321588 C11.3046887,6.47091491 11.366634,6.5418255 11.413908,6.58515975 L11.9453331,7.18868764 C12.1107921,7.02559329 12.2835868,6.86643842 12.4710527,6.71910197 C12.9014092,6.38503431 13.3480672,6.13290778 13.8191771,5.96193447 C15.5169662,5.34501235 17.022399,5.31586022 18.3379207,5.87605387 C19.367353,6.31491162 20.1832373,7.07995808 20.7904638,8.16331428 L21.5729302,7.56608955 C22.8501436,6.55443183 23.5429524,5.50495512 23.6538018,4.42159891 C23.7638362,3.34139429 23.526651,2.46840616 22.9446916,1.79869505 Z" id="Stroke-1"></path>
                            <path d="M13.2325093,41.2943197 C12.9659817,41.2171059 12.7646596,41.0642542 12.6358787,40.8294614 L5.74283866,29.0362427 C5.66377695,28.9275131 5.56352344,28.7565398 5.43800279,28.5233227 C5.31329721,28.2932573 5.12664636,27.8843396 4.88049547,27.2949938 C4.63271444,26.7087996 4.42976222,26.1233933 4.27652921,25.5332596 C4.11922086,24.9454896 4.02956325,24.2615964 4.00429611,23.4839436 C3.97821389,22.704715 4.07113178,21.981427 4.27652921,21.3125038 C4.95303663,19.1166393 6.13733214,17.5904858 7.82860069,16.7285282 C9.51986923,15.8673585 11.5224942,15.7696595 13.8356605,16.4354311 C14.477935,16.6197987 15.0957575,16.9152595 15.6989087,17.3194498 C16.2987996,17.7267917 16.8277795,18.1932258 17.2874785,18.7234795 C17.7504378,19.2513694 18.1375956,19.7359251 18.4513973,20.1755707 C18.7676441,20.6120648 19.0561786,21.0651047 19.3145555,21.5307508 C19.7978916,21.2778364 20.2950837,21.0509225 20.8061321,20.8523729 C21.3188106,20.6506717 21.9162563,20.4497583 22.6000994,20.2512087 C23.2872027,20.0510832 23.9946827,19.9392021 24.7266149,19.9155652 C25.4601771,19.8950799 26.1448352,19.9746574 26.7871097,20.1598128 C29.1002761,20.8247965 30.7214487,21.9633054 31.6514426,23.579279 C32.5806215,25.1944646 32.7094024,27.0980199 32.03371,29.2946724 C31.3547574,31.4999917 29.4825435,33.4074865 26.412993,35.0116416 L13.9986744,41.2210454 C13.7582289,41.3494724 13.5022972,41.3715334 13.2325093,41.2943197 Z" id="Stroke-3"></path>
                            <path d="M7.68139052,16.3946974 C9.37265907,15.5327398 11.375284,15.4358287 13.6884504,16.1008124 C14.3307249,16.2859678 14.9485473,16.5806407 15.5516985,16.985619 C16.1515894,17.392173 16.6805693,17.859395 17.1394533,18.3896486 C17.4019055,18.688261 17.6325701,18.9687518 17.8469333,19.2389999 L20.1625448,14.5439311 C21.248217,12.2369733 21.4739911,10.27275 20.8447577,8.65441276 C20.2195997,7.04237872 19.2480372,5.95902251 17.9333306,5.39961676 C16.618624,4.83942312 15.1123762,4.86857525 13.4145871,5.48470947 C12.9434771,5.65647067 12.4968192,5.90859721 12.0672778,6.24266487 C11.6393664,6.57830832 11.2676949,6.95492233 10.950633,7.37644638 C10.6343862,7.79481885 10.3711188,8.17773603 10.1583858,8.52283423 C9.9456527,8.86556873 9.75492651,9.22012168 9.58376198,9.58334147 C9.2104603,9.41788343 8.82493258,9.27291067 8.43125417,9.14999898 C8.03676068,9.02472361 7.57706167,8.90496351 7.05215712,8.79150656 C6.52806764,8.67568594 5.99175212,8.62841221 5.44158043,8.6473217 C4.89059366,8.66938277 4.3819905,8.76393022 3.91088051,8.93490353 C2.21309142,9.55103775 1.05976853,10.4870575 0.450911855,11.7453265 C-0.157944821,13.0035955 -0.150609198,14.4367773 0.47536393,16.0488113 C0.666090117,16.5396702 0.95054926,17.0131953 1.33118657,17.467811 C1.71182387,17.9232145 2.08594062,18.2927375 2.45598203,18.5763798 C2.82520837,18.8623859 3.22133199,19.1239672 3.64516796,19.366639 C4.06818886,19.6116744 4.37057953,19.7739809 4.55315502,19.8567099 C5.25737479,18.2580701 6.29658799,17.0998638 7.68139052,16.3946974 Z" id="Stroke-5"></path>
                        </g>
                    </g>
                </g>
            </g>
        </g>
    </g>
</svg>