<?xml version="1.0" encoding="UTF-8" standalone="no"?>
<svg width="32px" height="28px" viewBox="0 0 32 28" version="1.1" xmlns="http://www.w3.org/2000/svg" xmlns:xlink="http://www.w3.org/1999/xlink">
    <!-- Generator: Sketch 42 (36781) - http://www.bohemiancoding.com/sketch -->
    <title>Stroke 3</title>
    <desc>Created with Sketch.</desc>
    <defs></defs>
    <g id="Release-10" stroke="none" stroke-width="1" fill="none" fill-rule="evenodd">
        <g id="Home" transform="translate(-194.000000, -2352.000000)" stroke="#FFFFFF" stroke-width="1.5">
            <g id="Section:-Collection" transform="translate(0.000000, 1819.000000)">
                <g id="Products" transform="translate(150.000000, 307.000000)">
                    <g id="Group" transform="translate(24.000000, 204.000000)">
                        <path d="M35.7349474,48.714149 C35.4484574,48.7113125 35.2030971,48.6106155 35.0059579,48.4049667 L24.7135907,38.2345705 C24.6029658,38.1452196 24.4540477,37.9977198 24.2611634,37.7934893 C24.0696973,37.5920953 23.766188,37.224764 23.3492174,36.6886589 C22.9322467,36.1568086 22.5592424,35.6121938 22.2330408,35.0491416 C21.9068393,34.4903443 21.6175127,33.8124124 21.3650611,33.0210191 C21.1111912,32.2267893 20.9906385,31.4580883 21.0005664,30.7134979 C21.03035,28.2641499 21.7607578,26.3622532 23.1889531,24.9978799 C24.6185668,23.6349248 26.5786125,22.9711756 29.0719267,23.0009592 C29.762623,23.0094688 30.4618289,23.1385312 31.1794722,23.3838915 C31.894279,23.6320883 32.55661,23.9625446 33.166465,24.378097 C33.7819931,24.7893945 34.3081703,25.1779998 34.7492515,25.5396581 C35.1903327,25.8984797 35.6087216,26.2842485 36.0015817,26.689873 C36.4086245,26.2927581 36.835523,25.9197537 37.2851138,25.5708599 C37.7347046,25.2205479 38.2708097,24.8432887 38.8920109,24.4475921 C39.5146303,24.0462224 40.1854709,23.7327853 40.9059507,23.5016077 C41.6278489,23.2732666 42.3313096,23.1612235 43.0234241,23.1697331 C45.5153201,23.2009349 47.4597649,23.9129052 48.8539218,25.3098987 C50.2480788,26.7068922 50.9345202,28.6272264 50.9033184,31.0737378 C50.874953,33.5315954 49.5715652,36.0220732 46.9917366,38.5366614 L36.4738648,48.4234042 C36.2738891,48.6233799 36.0256923,48.7184038 35.7349474,48.714149 Z" id="Stroke-3"></path>
                    </g>
                </g>
            </g>
        </g>
    </g>
</svg>