<svg style="position: absolute; width: 0; height: 0; overflow: hidden;" version="1.1" xmlns="http://www.w3.org/2000/svg" xmlns:xlink="http://www.w3.org/1999/xlink">
<defs>
<symbol id="icon-wrapt-heart" viewBox="0 0 35 35">
<title>wrapt-heart</title>
<path class="path1" fill="" d="M17.21 32.054c-0.335 0-0.614-0.113-0.847-0.346l-11.948-11.526c-0.128-0.105-0.305-0.271-0.527-0.5-0.224-0.23-0.576-0.649-1.065-1.254-0.483-0.608-0.919-1.228-1.303-1.868-0.381-0.637-0.724-1.411-1.021-2.316-0.3-0.908-0.451-1.786-0.451-2.644 0-2.807 0.809-5.004 2.432-6.586 1.62-1.585 3.863-2.377 6.723-2.377 0.791 0 1.597 0.14 2.42 0.413 0.823 0.276 1.588 0.643 2.298 1.108 0.71 0.468 1.318 0.908 1.83 1.312 0.512 0.41 0.998 0.844 1.457 1.303 0.457-0.46 0.943-0.893 1.452-1.303 0.512-0.404 1.123-0.844 1.83-1.312 0.71-0.465 1.478-0.832 2.301-1.108 0.823-0.273 1.629-0.413 2.423-0.413 2.854 0 5.1 0.791 6.72 2.377 1.62 1.583 2.432 3.779 2.432 6.586 0 2.822-1.46 5.696-4.384 8.62l-11.933 11.488c-0.23 0.233-0.512 0.346-0.841 0.346z"></path>
</symbol>
<symbol id="icon-circle" viewbox="0 0 200 200">
<title>icon-circle</title>
<circle cx="135" cy="135" r="50"></circle>
</symbol>
<symbol id="wrapt-logo" viewBox="0 0 91.73 41.11">
  <title>wrapt-logo</title>
  <path class="cls-1" d="M90.63,1.09V40H1.09V1.09H90.63M91.73,0H0V41.11H91.73V0Z"/><path class="cls-2" d="M31.3,10.36l-4,18.92H25.8l-5-16.57-5,16.57H14.35l-4-18.92h1.31l3.55,16.92,5-16.62h1.25l5,16.62L30,10.36Z"/><path class="cls-2" d="M41.73,17.22a5.47,5.47,0,0,0-1.31-.13,4.12,4.12,0,0,0-2.07.49A3.3,3.3,0,0,0,37,18.94a7,7,0,0,0-.65,1.84,10.38,10.38,0,0,0-.2,2.09v6.4H34.84V15.94H36l.16,2.69a3.74,3.74,0,0,1,1.6-2.08,4.81,4.81,0,0,1,2.64-.75,7.7,7.7,0,0,1,1.31.08Z"/><path class="cls-2" d="M55.79,29.28a4.93,4.93,0,0,1-.64.08Q53,29.36,53,26.74a4.13,4.13,0,0,1-1.87,2.12,5.83,5.83,0,0,1-2.93.76,4.85,4.85,0,0,1-3.29-1.12,3.75,3.75,0,0,1-1.29-3,3.49,3.49,0,0,1,1.23-2.79,5.4,5.4,0,0,1,3.25-1.19L53,21.2V19.89q0-3-3.52-3a4.51,4.51,0,0,0-2.69.75,2.79,2.79,0,0,0-1.15,2.19H44.34a4.07,4.07,0,0,1,1.55-3.08,5.71,5.71,0,0,1,3.63-1.11,6.38,6.38,0,0,1,2.76.59A3.37,3.37,0,0,1,54,18a7.44,7.44,0,0,1,.35,2.56v6.08a2.27,2.27,0,0,0,.2,1.09.89.89,0,0,0,.84.35,2,2,0,0,0,.37,0ZM53,23.12v-.69l-4.78.29a4,4,0,0,0-2.37.85A2.43,2.43,0,0,0,45,25.52a2.59,2.59,0,0,0,.92,2.13,3.71,3.71,0,0,0,2.42.75,4.13,4.13,0,0,0,3.52-1.56A6,6,0,0,0,53,23.12Z"/><path class="cls-2" d="M71.21,22.58a7.43,7.43,0,0,1-2.08,5.66,5,5,0,0,1-3.63,1.39,5.27,5.27,0,0,1-2.67-.72A4.19,4.19,0,0,1,61,27v7.58H59.71V15.94h1.17L61,18.29a4.27,4.27,0,0,1,1.79-1.95,5.08,5.08,0,0,1,2.64-.75A5.15,5.15,0,0,1,69,16.85,7.23,7.23,0,0,1,71.21,22.58Zm-1.36,0a6.08,6.08,0,0,0-1.76-4.78,3.87,3.87,0,0,0-2.64-.93A3.8,3.8,0,0,0,62.72,18,6.22,6.22,0,0,0,61,22.61a6.09,6.09,0,0,0,1.68,4.67,3.9,3.9,0,0,0,2.8,1,3.77,3.77,0,0,0,2.85-1.17A6.4,6.4,0,0,0,69.85,22.61Z"/><path class="cls-2" d="M81.35,29.15a11.78,11.78,0,0,1-2.21.32q-3.44,0-3.44-3.9v-8.4H73V15.94h2.67V12.26L77,11.94v4h4.13v1.23H77v8.35a3.51,3.51,0,0,0,.48,2,2,2,0,0,0,1.73.69A12.29,12.29,0,0,0,81.35,28Z"/>
</symbol>

<symbol id="wrapt-logo-tm" viewBox="0 0 75 32">
  <title>wrapt-logo-tm</title>
  <path fill="#91a6cd" style="fill: var(--color1, #91a6cd)" d="M0 31.539v-31.539h74.868v31.539h-74.868zM1.045 30.573h72.777v-29.607h-72.777v29.607z"></path>
  <path fill="#333" style="fill: var(--color2, #333)" d="M64.4 8.495h-1.228v3.581h-0.283v-3.581h-1.223v-0.272h2.733v0.272zM68.687 12.075h-0.277v-3.445l-1.407 3.391h-0.25l-1.407-3.364v3.418h-0.277v-3.853h0.397l1.424 3.423 1.397-3.423h0.402v3.853z"></path>
  <path fill="#010000" style="fill: var(--color3, #010000)" d="M23.313 8.243l-2.956 14.069h-1.131l-3.711-12.322-3.711 12.322h-1.091l-2.957-14.069h0.973l2.639 12.58 3.71-12.362h0.933l3.73 12.362 2.6-12.58z"></path>
  <path fill="#010000" style="fill: var(--color3, #010000)" d="M31.072 13.343c-0.264-0.066-0.589-0.099-0.972-0.099-0.595 0-1.108 0.123-1.538 0.367s-0.758 0.582-0.982 1.012c-0.225 0.43-0.387 0.886-0.486 1.369s-0.149 1.002-0.149 1.557v4.763h-0.993v-9.921h0.873l0.12 2.004c0.211-0.662 0.608-1.177 1.19-1.547s1.237-0.556 1.965-0.556c0.437 0 0.76 0.020 0.972 0.060v0.992z"></path>
  <path fill="#010000" style="fill: var(--color3, #010000)" d="M39.485 17.728v-0.516l-3.552 0.219c-0.741 0.053-1.329 0.264-1.765 0.635s-0.655 0.853-0.655 1.448c0 0.688 0.228 1.217 0.685 1.587s1.055 0.555 1.796 0.555c1.164 0 2.037-0.387 2.619-1.16s0.873-1.697 0.873-2.768v0zM41.529 22.312c-0.238 0.039-0.397 0.059-0.476 0.059-1.046 0-1.568-0.648-1.568-1.944-0.264 0.674-0.728 1.2-1.389 1.577s-1.389 0.566-2.182 0.566c-0.993 0-1.809-0.278-2.451-0.833s-0.962-1.296-0.962-2.223c0-0.86 0.304-1.55 0.913-2.074 0.608-0.522 1.415-0.816 2.421-0.883l3.651-0.258v-0.973c0-1.508-0.873-2.262-2.619-2.262-0.82 0-1.488 0.185-2.004 0.555s-0.801 0.913-0.853 1.627h-0.992c0.066-0.979 0.449-1.743 1.151-2.292s1.6-0.824 2.698-0.824c0.754 0 1.439 0.146 2.053 0.437s1.049 0.754 1.3 1.389c0.172 0.45 0.258 1.085 0.258 1.905v4.524c0 0.371 0.050 0.642 0.149 0.813s0.307 0.258 0.625 0.258c0.119 0 0.211-0.007 0.278-0.020v0.873z"></path>
  <path fill="#010000" style="fill: var(--color3, #010000)" d="M51.986 17.351c0-1.587-0.437-2.771-1.31-3.551-0.529-0.463-1.185-0.694-1.965-0.694-0.793 0-1.468 0.264-2.024 0.793-0.847 0.834-1.27 1.985-1.27 3.452 0 1.535 0.417 2.692 1.25 3.473 0.542 0.516 1.237 0.773 2.084 0.773 0.859 0 1.567-0.29 2.123-0.872 0.741-0.794 1.112-1.918 1.112-3.374zM52.998 17.331c0 1.825-0.516 3.227-1.548 4.207-0.714 0.687-1.614 1.031-2.698 1.031-0.702 0-1.363-0.178-1.985-0.536s-1.064-0.821-1.33-1.389v5.636h-0.992v-13.89h0.873l0.119 1.746c0.265-0.595 0.708-1.078 1.33-1.449 0.622-0.37 1.277-0.555 1.965-0.555 1.058 0 1.938 0.312 2.639 0.933 1.085 0.952 1.628 2.375 1.628 4.266z"></path>
  <path fill="#010000" style="fill: var(--color3, #010000)" d="M60.538 22.213c-0.741 0.159-1.29 0.238-1.647 0.238-1.706 0-2.559-0.966-2.559-2.898v-6.25h-1.985v-0.913h1.985v-2.739l0.992-0.238v2.977h3.076v0.913h-3.076v6.21c0 0.648 0.119 1.145 0.357 1.488s0.668 0.516 1.29 0.516c0.397 0 0.92-0.060 1.567-0.179v0.873z"></path>
</symbol>


<symbol id="icon-caret-right" viewBox="0 0 20 20">
<title>icon-caret-right</title>
<path class="path1" d="M13.25 10l-7.141-7.42c-0.268-0.27-0.268-0.707 0-0.979 0.268-0.27 0.701-0.27 0.969 0l7.83 7.908c0.268 0.271 0.268 0.709 0 0.979l-7.83 7.908c-0.268 0.271-0.701 0.27-0.969 0s-0.268-0.707 0-0.979l7.141-7.417z"></path>
</symbol>
<symbol id="icon-caret-left" viewBox="0 0 20 20">
<title>icon-caret-left</title>
<path class="path1" d="M13.891 17.418c0.268 0.272 0.268 0.709 0 0.979s-0.701 0.271-0.969 0l-7.83-7.908c-0.268-0.27-0.268-0.707 0-0.979l7.83-7.908c0.268-0.27 0.701-0.27 0.969 0s0.268 0.709 0 0.979l-7.141 7.419 7.141 7.418z"></path>
</symbol>


<symbol id="icon-close" viewBox="0 0 20 20">
  <path stroke="currentColor" class="st0" d="M-.04.666L.665-.04 19.97 19.262l-.707.707z"/><path stroke="currentColor" class="st0" d="M-.04 19.334L19.262.03l.707.707L.666 20.04z"/>
</symbol>

<symbol id="icon-dislike" viewBox="0 0 34 32">
<title>icon-dislike</title>
<path class="path1" fill="none" opacity="0.7" stroke="currentColor" stroke-width="1.6" stroke-miterlimit="4" stroke-linecap="round" stroke-linejoin="round" d="M19.234 20.545h10.775c0.96 0 1.747-0.786 1.747-1.747l-3.496-14.85c0-0.961-0.786-1.747-1.747-1.747h-14.85c-0.96 0-1.747 0.786-1.747 1.747v14.85c0 0.961 0.785 2.309 1.894 3.349l8.242 7.274c0.426 0.606 1.271 0.752 1.877 0.326s0.754-1.27 0.328-1.876l-3.385-7.4"></path>
<path class="path2" fill="none" opacity="0.7" stroke="currentColor" stroke-width="1.6" stroke-miterlimit="4" stroke-linecap="round" stroke-linejoin="round" d="M5.513 21.78h-2.113c-0.66 0-1.2-0.54-1.2-1.2v-17.179c0-0.66 0.54-1.2 1.2-1.2h2.113c0.66 0 1.2 0.54 1.2 1.2v17.179c0 0.66-0.54 1.2-1.2 1.2z"></path>
</symbol>

<symbol id="icon-like" viewBox="0 0 34 32">
<title>ico-like</title>
<path fill="none" opacity="0.696841" stroke="currentColor" stroke-width="1.6" stroke-miterlimit="4" stroke-linecap="round" stroke-linejoin="round" d="M19.234 11.455h10.775c0.96 0 1.747 0.786 1.747 1.747l-3.496 14.85c0 0.961-0.786 1.747-1.747 1.747h-14.85c-0.96 0-1.747-0.786-1.747-1.747v-14.85c0-0.961 0.785-2.309 1.894-3.349l8.242-7.274c0.426-0.606 1.271-0.752 1.877-0.326s0.754 1.27 0.328 1.876l-3.385 7.4"></path>
<path fill="none" opacity="0.696841" stroke="currentColor" stroke-width="1.6" stroke-miterlimit="4" stroke-linecap="round" stroke-linejoin="round" d="M5.513 10.22h-2.113c-0.66 0-1.2 0.54-1.2 1.2v17.179c0 0.66 0.54 1.2 1.2 1.2h2.113c0.66 0 1.2-0.54 1.2-1.2v-17.179c0-0.66-0.54-1.2-1.2-1.2z"></path>
</symbol>

<symbol id="icon-gift-better-gift-wrapt" viewBox="0 0 188 32">
<title>gift-better-gift-wrapt</title>
<path fill="#4e4c4d" style="fill: var(--color1, #4e4c4d)" d="M16.316 20.715c-0.002 0-0.005 0-0.008 0-0.102 0-0.195-0.042-0.261-0.11l-3.826-3.696c-0.061-0.052-0.116-0.104-0.168-0.159q-0.111-0.111-0.342-0.422c-0.143-0.175-0.282-0.371-0.408-0.575-0.14-0.231-0.252-0.47-0.339-0.722-0.096-0.277-0.148-0.566-0.151-0.868-0.003-0.048-0.004-0.104-0.004-0.159 0-0.757 0.299-1.444 0.785-1.95 0.521-0.475 1.218-0.767 1.984-0.767 0.059 0 0.118 0.002 0.177 0.005 0.27 0.001 0.536 0.049 0.784 0.135 0.264 0.090 0.508 0.211 0.732 0.36q0.33 0.216 0.574 0.414c0.17 0.138 0.323 0.275 0.467 0.421 0.145-0.146 0.298-0.283 0.457-0.413q0.255-0.206 0.596-0.43c0.217-0.146 0.467-0.27 0.732-0.36 0.253-0.088 0.52-0.136 0.797-0.137 0.051-0.003 0.11-0.005 0.169-0.005 0.765 0 1.463 0.292 1.987 0.77 0.483 0.503 0.782 1.19 0.782 1.947 0 0.056-0.002 0.111-0.005 0.165q0 1.349-1.407 2.757l-3.835 3.687c-0.067 0.068-0.159 0.11-0.262 0.11-0.003 0-0.006-0-0.009-0z"></path>
<path fill="#4e4c4d" style="fill: var(--color1, #4e4c4d)" d="M48.523 19.658h-0.539l-0.152-1.509c-0.26 0.527-0.662 0.95-1.157 1.227-0.497 0.292-1.079 0.461-1.699 0.462-0.028 0.001-0.061 0.001-0.094 0.001-0.977 0-1.861-0.398-2.497-1.042q-1.264-1.231-1.264-4.046t1.264-4.033c0.651-0.659 1.553-1.066 2.552-1.066 0.014 0 0.028 0 0.042 0 0.040-0.002 0.090-0.003 0.14-0.003 0.883 0 1.694 0.309 2.33 0.826 0.609 0.506 1.014 1.251 1.071 2.092l-0.733 0.009c-0.051-0.573-0.29-1.081-0.654-1.472q-0.69-0.749-2.148-0.749c-0.019-0-0.040-0.001-0.062-0.001-0.768 0-1.465 0.307-1.973 0.806q-1.074 1.057-1.074 3.586 0 2.604 1.079 3.616c0.501 0.473 1.178 0.764 1.923 0.764 0.031 0 0.061-0 0.091-0.001 0.031 0.002 0.073 0.003 0.116 0.003 0.724 0 1.378-0.298 1.847-0.778 0.334-0.35 0.576-0.79 0.684-1.28 0.108-0.512 0.169-1.080 0.169-1.662 0-0.046-0-0.092-0.001-0.137l-2.895 0.007v-0.708h3.628z"></path>
<path fill="#4e4c4d" style="fill: var(--color1, #4e4c4d)" d="M51.948 10.804h-0.961v-0.969h0.969zM51.839 19.653h-0.733v-6.923h0.725z"></path>
<path fill="#4e4c4d" style="fill: var(--color1, #4e4c4d)" d="M58.096 10.278c-0.298-0.050-0.643-0.081-0.995-0.084q-1.318-0-1.318 1.344v1.193h2.174v0.636h-2.174v6.291h-0.691v-6.291h-1.386v-0.636h1.386v-1.218c-0.001-0.019-0.001-0.042-0.001-0.065 0-0.509 0.192-0.973 0.508-1.323 0.336-0.342 0.805-0.554 1.324-0.554 0.044 0 0.087 0.002 0.13 0.004 0.001-0 0.010-0 0.019-0 0.363 0 0.72 0.031 1.066 0.090z"></path>
<path fill="#4e4c4d" style="fill: var(--color1, #4e4c4d)" d="M62.786 19.59c-0.338 0.085-0.732 0.144-1.136 0.164q-1.801 0.001-1.801-2.022v-4.366h-1.386v-0.636h1.374v-1.913l0.691-0.164v2.077h2.149v0.636h-2.149v4.332c-0.002 0.036-0.004 0.077-0.004 0.119 0 0.34 0.094 0.658 0.257 0.93 0.183 0.218 0.464 0.361 0.779 0.361 0.042 0 0.083-0.003 0.123-0.007 0.397-0.015 0.777-0.065 1.146-0.146z"></path>
<path fill="#4e4c4d" style="fill: var(--color1, #4e4c4d)" d="M74.585 16.944c0.001 0.031 0.002 0.068 0.002 0.104 0 0.772-0.356 1.46-0.912 1.91-0.623 0.443-1.394 0.706-2.226 0.706-0.083 0-0.165-0.003-0.246-0.008l-3.465 0.001v-9.822h3.476c0.051-0.002 0.112-0.004 0.172-0.004 0.714 0 1.382 0.197 1.952 0.54 0.297 0.195 0.548 0.471 0.719 0.796 0.175 0.32 0.275 0.687 0.275 1.078q0 1.871-1.568 2.301c0.549 0.11 1.013 0.414 1.327 0.837 0.31 0.427 0.493 0.955 0.493 1.525 0 0.013-0 0.025-0 0.038zM73.629 12.309c0.002-0.028 0.003-0.061 0.003-0.094 0-0.53-0.28-0.995-0.7-1.255-0.467-0.27-1.019-0.427-1.608-0.427-0.041 0-0.082 0.001-0.123 0.002l-2.75-0v3.674h2.764c0.046 0.002 0.101 0.004 0.155 0.004 0.596 0 1.156-0.158 1.639-0.434q0.607-0.396 0.607-1.479zM73.852 16.893q0-2.010-2.634-2.010h-2.756v4.079h2.752q2.621 0 2.621-2.073z"></path>
<path fill="#4e4c4d" style="fill: var(--color1, #4e4c4d)" d="M82.17 15.903c0 0.055 0 0.131 0 0.228s0 0.173 0 0.228h-5.326c-0 0.010-0 0.022-0 0.034 0 0.777 0.272 1.49 0.726 2.050 0.384 0.445 0.956 0.729 1.594 0.729 0.030 0 0.061-0.001 0.091-0.002 0.014 0.001 0.036 0.001 0.058 0.001 0.964 0 1.771-0.676 1.971-1.58l0.723-0.013c-0.1 0.577-0.378 1.077-0.774 1.453-0.49 0.498-1.17 0.807-1.922 0.807-0.021 0-0.042-0-0.063-0.001-0.019 0.001-0.045 0.001-0.071 0.001-0.851 0-1.613-0.38-2.126-0.979-0.556-0.674-0.891-1.542-0.891-2.488 0-0.053 0.001-0.105 0.003-0.157-0.003-0.053-0.005-0.124-0.005-0.195 0-0.843 0.255-1.627 0.693-2.277 0.5-0.718 1.337-1.191 2.285-1.191 0.022 0 0.043 0 0.065 0.001 0.016-0.001 0.038-0.001 0.061-0.001 0.835 0 1.579 0.386 2.064 0.99 0.528 0.628 0.847 1.439 0.847 2.324 0 0.014-0 0.029-0 0.043zM81.462 15.722c-0.003-0.677-0.243-1.297-0.64-1.783-0.364-0.45-0.923-0.738-1.548-0.738-0.025 0-0.049 0-0.074 0.001-0.019-0.001-0.046-0.001-0.073-0.001-0.64 0-1.214 0.28-1.607 0.724-0.403 0.459-0.648 1.061-0.648 1.72 0 0.027 0 0.054 0.001 0.081z"></path>
<path fill="#4e4c4d" style="fill: var(--color1, #4e4c4d)" d="M87.429 19.59c-0.338 0.085-0.732 0.144-1.136 0.164q-1.801 0.001-1.801-2.022v-4.366h-1.386v-0.636h1.386v-1.913l0.691-0.164v2.077h2.149v0.636h-2.149v4.332c-0.002 0.036-0.004 0.077-0.004 0.119 0 0.34 0.094 0.658 0.257 0.93 0.183 0.218 0.464 0.361 0.779 0.361 0.042 0 0.083-0.003 0.123-0.007 0.39-0.011 0.767-0.056 1.132-0.133z"></path>
<path fill="#4e4c4d" style="fill: var(--color1, #4e4c4d)" d="M92.557 19.59c-0.338 0.085-0.732 0.144-1.136 0.164q-1.801 0.001-1.801-2.022v-4.366h-1.386v-0.636h1.386v-1.913l0.691-0.164v2.077h2.149v0.636h-2.149v4.332c-0.002 0.036-0.004 0.077-0.004 0.119 0 0.34 0.094 0.658 0.257 0.93 0.183 0.218 0.464 0.361 0.779 0.361 0.042 0 0.083-0.003 0.123-0.007 0.39-0.011 0.767-0.056 1.132-0.133z"></path>
<path fill="#4e4c4d" style="fill: var(--color1, #4e4c4d)" d="M99.662 15.903c0 0.055 0 0.131 0 0.228s0 0.173 0 0.228h-5.305c-0 0.010-0 0.022-0 0.034 0 0.777 0.272 1.49 0.726 2.050 0.384 0.445 0.956 0.729 1.594 0.729 0.030 0 0.061-0.001 0.091-0.002 0.014 0.001 0.036 0.001 0.058 0.001 0.964 0 1.771-0.676 1.971-1.58l0.723-0.013c-0.1 0.577-0.378 1.077-0.774 1.453-0.49 0.498-1.17 0.807-1.922 0.807-0.021 0-0.042-0-0.063-0.001-0.019 0.001-0.045 0.001-0.071 0.001-0.851 0-1.613-0.38-2.126-0.979-0.556-0.674-0.891-1.542-0.891-2.488 0-0.053 0.001-0.105 0.003-0.157-0.003-0.053-0.005-0.124-0.005-0.195 0-0.843 0.255-1.627 0.693-2.277 0.5-0.718 1.337-1.191 2.285-1.191 0.022 0 0.043 0 0.065 0.001 0.023-0.001 0.054-0.002 0.085-0.002 0.833 0 1.576 0.385 2.061 0.987 0.503 0.62 0.806 1.412 0.806 2.274 0 0.033-0 0.067-0.001 0.1zM98.954 15.722c-0.003-0.677-0.243-1.297-0.64-1.783-0.364-0.45-0.923-0.738-1.548-0.738-0.025 0-0.049 0-0.074 0.001-0.019-0.001-0.046-0.001-0.073-0.001-0.64 0-1.214 0.28-1.607 0.724-0.388 0.454-0.624 1.046-0.624 1.692 0 0.037 0.001 0.074 0.002 0.11z"></path>
<path fill="#4e4c4d" style="fill: var(--color1, #4e4c4d)" d="M105.304 13.396c-0.187-0.043-0.402-0.068-0.623-0.068-0.020 0-0.039 0-0.059 0.001-0.014-0.001-0.034-0.001-0.054-0.001-0.373 0-0.723 0.095-1.028 0.263-0.283 0.161-0.518 0.402-0.671 0.693-0.153 0.285-0.271 0.605-0.342 0.943-0.071 0.342-0.109 0.708-0.109 1.083 0 0.010 0 0.019 0 0.029v3.323h-0.691v-6.932h0.611l0.084 1.399c0.143-0.45 0.432-0.819 0.81-1.061 0.389-0.248 0.854-0.392 1.353-0.392 0.008 0 0.017 0 0.025 0 0.026-0.001 0.059-0.001 0.091-0.001 0.207 0 0.41 0.016 0.608 0.046z"></path>
<path fill="#4e4c4d" style="fill: var(--color1, #4e4c4d)" d="M106.758 19.658h-1.218v-1.264h1.218z"></path>
<path fill="#4e4c4d" style="fill: var(--color1, #4e4c4d)" d="M118.523 19.658h-0.535l-0.152-1.509c-0.262 0.528-0.667 0.951-1.165 1.227-0.498 0.292-1.079 0.461-1.7 0.462-0.028 0.001-0.061 0.001-0.094 0.001-0.977 0-1.861-0.398-2.497-1.042q-1.264-1.231-1.264-4.046t1.264-4.033c0.65-0.659 1.553-1.066 2.552-1.066 0.014 0 0.028 0 0.042 0 0.040-0.002 0.090-0.003 0.14-0.003 0.883 0 1.694 0.309 2.33 0.826 0.609 0.506 1.014 1.251 1.071 2.092l-0.733 0.009c-0.051-0.573-0.29-1.081-0.654-1.472q-0.69-0.749-2.148-0.749c-0.021-0.001-0.046-0.001-0.070-0.001-0.771 0-1.469 0.309-1.978 0.81q-1.062 1.053-1.062 3.581 0 2.604 1.079 3.616c0.501 0.473 1.178 0.764 1.923 0.764 0.031 0 0.061-0 0.091-0.001 0.031 0.002 0.073 0.003 0.116 0.003 0.724 0 1.378-0.298 1.847-0.778 0.336-0.351 0.579-0.792 0.688-1.285 0.109-0.512 0.169-1.080 0.169-1.662 0-0.046-0-0.092-0.001-0.137l-2.895 0.007v-0.704h3.628z"></path>
<path fill="#4e4c4d" style="fill: var(--color1, #4e4c4d)" d="M121.945 10.804h-0.969v-0.969h0.969zM121.835 19.653h-0.733v-6.923h0.733z"></path>
<path fill="#4e4c4d" style="fill: var(--color1, #4e4c4d)" d="M128.101 10.278c-0.298-0.050-0.643-0.081-0.995-0.084q-1.318-0-1.318 1.344v1.193h2.174v0.636h-2.179v6.291h-0.691v-6.291h-1.386v-0.636h1.386v-1.218c-0.001-0.019-0.001-0.042-0.001-0.065 0-0.509 0.192-0.973 0.508-1.323 0.336-0.342 0.805-0.554 1.324-0.554 0.044 0 0.087 0.002 0.13 0.004 0.001-0 0.010-0 0.019-0 0.363 0 0.72 0.031 1.066 0.090z"></path>
<path fill="#4e4c4d" style="fill: var(--color1, #4e4c4d)" d="M132.779 19.59c-0.338 0.085-0.732 0.144-1.136 0.164q-1.801 0.001-1.801-2.022v-4.366h-1.386v-0.636h1.386v-1.913l0.691-0.164v2.077h2.149v0.636h-2.149v4.332c-0.002 0.036-0.004 0.077-0.004 0.119 0 0.34 0.094 0.658 0.257 0.93 0.183 0.218 0.464 0.361 0.779 0.361 0.042 0 0.083-0.003 0.123-0.007 0.39-0.011 0.767-0.056 1.132-0.133z"></path>
<path fill="#4e4c4d" style="fill: var(--color1, #4e4c4d)" d="M147.632 9.835l-2.065 9.822h-0.788l-2.592-8.605-2.592 8.605h-0.763l-2.065-9.822h0.678l1.841 8.786 2.592-8.634h0.653l2.604 8.63 1.816-8.786z"></path>
<path fill="#4e4c4d" style="fill: var(--color1, #4e4c4d)" d="M153.051 13.396c-0.187-0.043-0.402-0.068-0.623-0.068-0.020 0-0.039 0-0.059 0.001-0.014-0.001-0.034-0.001-0.054-0.001-0.373 0-0.723 0.095-1.028 0.263-0.283 0.161-0.518 0.402-0.671 0.693-0.153 0.285-0.271 0.605-0.342 0.943-0.071 0.342-0.109 0.708-0.109 1.083 0 0.010 0 0.019 0 0.029v3.323h-0.691v-6.932h0.611l0.084 1.399c0.147-0.458 0.445-0.833 0.834-1.074 0.39-0.248 0.855-0.393 1.354-0.393 0.008 0 0.017 0 0.025 0 0.026-0.001 0.059-0.001 0.091-0.001 0.207 0 0.41 0.016 0.608 0.046z"></path>
<path fill="#4e4c4d" style="fill: var(--color1, #4e4c4d)" d="M160.35 19.658c-0.096 0.020-0.21 0.035-0.326 0.042q-1.102 0-1.102-1.357c-0.189 0.475-0.529 0.856-0.958 1.094-0.441 0.255-0.957 0.402-1.508 0.402-0.010 0-0.020-0-0.030-0-0.027 0.001-0.060 0.002-0.094 0.002-0.616 0-1.181-0.22-1.619-0.587-0.411-0.357-0.672-0.884-0.672-1.473 0-0.026 0-0.052 0.002-0.078-0.001-0.017-0.001-0.041-0.001-0.066 0-0.552 0.246-1.046 0.635-1.378 0.461-0.372 1.046-0.602 1.685-0.617l2.553-0.181v-0.678q0-1.58-1.829-1.58c-0.031-0.001-0.066-0.002-0.102-0.002-0.483 0-0.932 0.146-1.305 0.395-0.345 0.255-0.574 0.666-0.586 1.131l-0.691 0.002c0.018-0.649 0.327-1.223 0.8-1.598 0.488-0.363 1.096-0.579 1.756-0.579 0.047 0 0.093 0.001 0.139 0.003 0.007-0 0.024-0.001 0.041-0.001 0.503 0 0.979 0.112 1.406 0.312 0.397 0.186 0.719 0.528 0.882 0.949 0.121 0.364 0.188 0.77 0.188 1.192 0 0.053-0.001 0.106-0.003 0.159l0 3.153c-0.002 0.023-0.003 0.050-0.003 0.077 0 0.178 0.040 0.348 0.111 0.499 0.082 0.105 0.216 0.177 0.367 0.177 0.018 0 0.036-0.001 0.054-0.003 0.027 0.003 0.061 0.005 0.095 0.005s0.068-0.002 0.101-0.005zM158.921 16.459v-0.362l-2.482 0.152c-0.469 0.011-0.897 0.176-1.239 0.446-0.275 0.23-0.451 0.579-0.451 0.968 0 0.014 0 0.028 0.001 0.041-0.002 0.022-0.002 0.050-0.002 0.078 0 0.412 0.185 0.78 0.477 1.027 0.322 0.245 0.726 0.392 1.166 0.392 0.035 0 0.070-0.001 0.105-0.003 0.040 0.003 0.091 0.005 0.144 0.005 0.679 0 1.285-0.316 1.677-0.81 0.383-0.516 0.611-1.161 0.611-1.858 0-0.027-0-0.054-0.001-0.080z"></path>
<path fill="#4e4c4d" style="fill: var(--color1, #4e4c4d)" d="M168.36 16.181q0 1.913-1.079 2.95c-0.467 0.447-1.102 0.722-1.801 0.722-0.029 0-0.058-0-0.086-0.001 0.003 0 0.002 0 0 0-0.51 0-0.986-0.139-1.395-0.382-0.391-0.214-0.71-0.547-0.909-0.949l-0.006 3.923h-0.691v-9.692h0.611l0.084 1.218c0.2-0.431 0.519-0.778 0.916-1.006 0.401-0.248 0.874-0.392 1.38-0.393 0.026-0.001 0.057-0.001 0.087-0.001 0.673 0 1.288 0.248 1.758 0.657q1.13 0.975 1.13 2.955zM167.652 16.181q0-1.664-0.914-2.482c-0.35-0.302-0.809-0.485-1.311-0.485-0.020 0-0.041 0-0.061 0.001-0.009-0-0.024-0.001-0.038-0.001-0.535 0-1.020 0.212-1.375 0.557-0.551 0.577-0.89 1.362-0.89 2.225 0 0.065 0.002 0.129 0.006 0.193-0.008 0.072-0.012 0.165-0.012 0.259 0 0.841 0.328 1.606 0.864 2.173 0.359 0.334 0.843 0.539 1.375 0.539 0.027 0 0.054-0.001 0.081-0.002 0.016 0.001 0.038 0.001 0.061 0.001 0.564 0 1.072-0.238 1.43-0.619 0.492-0.576 0.791-1.329 0.791-2.151 0-0.070-0.002-0.139-0.006-0.207z"></path>
<path fill="#4e4c4d" style="fill: var(--color1, #4e4c4d)" d="M173.611 19.59c-0.338 0.085-0.732 0.144-1.136 0.164q-1.801 0.001-1.801-2.022v-4.366h-1.386v-0.636h1.386v-1.913l0.691-0.164v2.077h2.149v0.636h-2.149v4.332c-0.002 0.036-0.004 0.077-0.004 0.119 0 0.34 0.094 0.658 0.257 0.93 0.183 0.218 0.464 0.361 0.779 0.361 0.042 0 0.083-0.003 0.123-0.007 0.393-0.016 0.769-0.065 1.133-0.146z"></path>
<path fill="#4e4c4d" style="fill: var(--color1, #4e4c4d)" d="M176.809 19.658h-1.218v-1.264h1.218z"></path>
<path fill="none" stroke="#92a7ce" stroke-width="0.8723" stroke-miterlimit="10" stroke-linecap="butt" stroke-linejoin="miter" style="stroke: var(--color2, #92a7ce)" d="M0.434 0.434h186.825v31.132h-186.825v-31.132z"></path>
<path fill="none" stroke="#92a7ce" stroke-width="0.9903" stroke-miterlimit="10" stroke-linecap="butt" stroke-linejoin="miter" style="stroke: var(--color2, #92a7ce)" d="M31.258 0.434v31.132"></path>
</symbol>

</defs>
</svg>
