<svg style="position: absolute; width: 0; height: 0; overflow: hidden;" version="1.1" xmlns="http://www.w3.org/2000/svg" xmlns:xlink="http://www.w3.org/1999/xlink">
<defs>
<symbol id="icon-wrapt-heart" viewBox="0 0 35 35">
<title>wrapt-heart</title>
<path class="path1" fill="" d="M17.21 32.054c-0.335 0-0.614-0.113-0.847-0.346l-11.948-11.526c-0.128-0.105-0.305-0.271-0.527-0.5-0.224-0.23-0.576-0.649-1.065-1.254-0.483-0.608-0.919-1.228-1.303-1.868-0.381-0.637-0.724-1.411-1.021-2.316-0.3-0.908-0.451-1.786-0.451-2.644 0-2.807 0.809-5.004 2.432-6.586 1.62-1.585 3.863-2.377 6.723-2.377 0.791 0 1.597 0.14 2.42 0.413 0.823 0.276 1.588 0.643 2.298 1.108 0.71 0.468 1.318 0.908 1.83 1.312 0.512 0.41 0.998 0.844 1.457 1.303 0.457-0.46 0.943-0.893 1.452-1.303 0.512-0.404 1.123-0.844 1.83-1.312 0.71-0.465 1.478-0.832 2.301-1.108 0.823-0.273 1.629-0.413 2.423-0.413 2.854 0 5.1 0.791 6.72 2.377 1.62 1.583 2.432 3.779 2.432 6.586 0 2.822-1.46 5.696-4.384 8.62l-11.933 11.488c-0.23 0.233-0.512 0.346-0.841 0.346z"></path>
</symbol>
<symbol id="icon-circle" viewbox="0 0 200 200">
<title>icon-circle</title>
<circle cx="135" cy="135" r="50"></circle>
</symbol>
</symbol>
</symbol>
</defs>
</svg>
