<svg style="position: absolute; width: 0; height: 0; overflow: hidden;" version="1.1" xmlns="http://www.w3.org/2000/svg" xmlns:xlink="http://www.w3.org/1999/xlink">
<defs>
<symbol id="icon-wrapt-heart" viewBox="0 0 35 35">
<title>wrapt-heart</title>
<path class="path1" fill="" d="M17.21 32.054c-0.335 0-0.614-0.113-0.847-0.346l-11.948-11.526c-0.128-0.105-0.305-0.271-0.527-0.5-0.224-0.23-0.576-0.649-1.065-1.254-0.483-0.608-0.919-1.228-1.303-1.868-0.381-0.637-0.724-1.411-1.021-2.316-0.3-0.908-0.451-1.786-0.451-2.644 0-2.807 0.809-5.004 2.432-6.586 1.62-1.585 3.863-2.377 6.723-2.377 0.791 0 1.597 0.14 2.42 0.413 0.823 0.276 1.588 0.643 2.298 1.108 0.71 0.468 1.318 0.908 1.83 1.312 0.512 0.41 0.998 0.844 1.457 1.303 0.457-0.46 0.943-0.893 1.452-1.303 0.512-0.404 1.123-0.844 1.83-1.312 0.71-0.465 1.478-0.832 2.301-1.108 0.823-0.273 1.629-0.413 2.423-0.413 2.854 0 5.1 0.791 6.72 2.377 1.62 1.583 2.432 3.779 2.432 6.586 0 2.822-1.46 5.696-4.384 8.62l-11.933 11.488c-0.23 0.233-0.512 0.346-0.841 0.346z"></path>
</symbol>
<symbol id="icon-circle" viewbox="0 0 200 200">
<title>icon-circle</title>
<circle cx="135" cy="135" r="50"></circle>
</symbol>
<symbol id="wrapt-logo" viewBox="0 0 91.73 41.11">
  <title>wrapt-logo</title>
  <path class="cls-1" d="M90.63,1.09V40H1.09V1.09H90.63M91.73,0H0V41.11H91.73V0Z"/><path class="cls-2" d="M31.3,10.36l-4,18.92H25.8l-5-16.57-5,16.57H14.35l-4-18.92h1.31l3.55,16.92,5-16.62h1.25l5,16.62L30,10.36Z"/><path class="cls-2" d="M41.73,17.22a5.47,5.47,0,0,0-1.31-.13,4.12,4.12,0,0,0-2.07.49A3.3,3.3,0,0,0,37,18.94a7,7,0,0,0-.65,1.84,10.38,10.38,0,0,0-.2,2.09v6.4H34.84V15.94H36l.16,2.69a3.74,3.74,0,0,1,1.6-2.08,4.81,4.81,0,0,1,2.64-.75,7.7,7.7,0,0,1,1.31.08Z"/><path class="cls-2" d="M55.79,29.28a4.93,4.93,0,0,1-.64.08Q53,29.36,53,26.74a4.13,4.13,0,0,1-1.87,2.12,5.83,5.83,0,0,1-2.93.76,4.85,4.85,0,0,1-3.29-1.12,3.75,3.75,0,0,1-1.29-3,3.49,3.49,0,0,1,1.23-2.79,5.4,5.4,0,0,1,3.25-1.19L53,21.2V19.89q0-3-3.52-3a4.51,4.51,0,0,0-2.69.75,2.79,2.79,0,0,0-1.15,2.19H44.34a4.07,4.07,0,0,1,1.55-3.08,5.71,5.71,0,0,1,3.63-1.11,6.38,6.38,0,0,1,2.76.59A3.37,3.37,0,0,1,54,18a7.44,7.44,0,0,1,.35,2.56v6.08a2.27,2.27,0,0,0,.2,1.09.89.89,0,0,0,.84.35,2,2,0,0,0,.37,0ZM53,23.12v-.69l-4.78.29a4,4,0,0,0-2.37.85A2.43,2.43,0,0,0,45,25.52a2.59,2.59,0,0,0,.92,2.13,3.71,3.71,0,0,0,2.42.75,4.13,4.13,0,0,0,3.52-1.56A6,6,0,0,0,53,23.12Z"/><path class="cls-2" d="M71.21,22.58a7.43,7.43,0,0,1-2.08,5.66,5,5,0,0,1-3.63,1.39,5.27,5.27,0,0,1-2.67-.72A4.19,4.19,0,0,1,61,27v7.58H59.71V15.94h1.17L61,18.29a4.27,4.27,0,0,1,1.79-1.95,5.08,5.08,0,0,1,2.64-.75A5.15,5.15,0,0,1,69,16.85,7.23,7.23,0,0,1,71.21,22.58Zm-1.36,0a6.08,6.08,0,0,0-1.76-4.78,3.87,3.87,0,0,0-2.64-.93A3.8,3.8,0,0,0,62.72,18,6.22,6.22,0,0,0,61,22.61a6.09,6.09,0,0,0,1.68,4.67,3.9,3.9,0,0,0,2.8,1,3.77,3.77,0,0,0,2.85-1.17A6.4,6.4,0,0,0,69.85,22.61Z"/><path class="cls-2" d="M81.35,29.15a11.78,11.78,0,0,1-2.21.32q-3.44,0-3.44-3.9v-8.4H73V15.94h2.67V12.26L77,11.94v4h4.13v1.23H77v8.35a3.51,3.51,0,0,0,.48,2,2,2,0,0,0,1.73.69A12.29,12.29,0,0,0,81.35,28Z"/>
</symbol>

<symbol id="wrapt-logo-tm" viewBox="0 0 75 32">
  <title>wrapt-logo-tm</title>
  <path fill="#91a6cd" style="fill: var(--color1, #91a6cd)" d="M0 31.539v-31.539h74.868v31.539h-74.868zM1.045 30.573h72.777v-29.607h-72.777v29.607z"></path>
  <path fill="#333" style="fill: var(--color2, #333)" d="M64.4 8.495h-1.228v3.581h-0.283v-3.581h-1.223v-0.272h2.733v0.272zM68.687 12.075h-0.277v-3.445l-1.407 3.391h-0.25l-1.407-3.364v3.418h-0.277v-3.853h0.397l1.424 3.423 1.397-3.423h0.402v3.853z"></path>
  <path fill="#010000" style="fill: var(--color3, #010000)" d="M23.313 8.243l-2.956 14.069h-1.131l-3.711-12.322-3.711 12.322h-1.091l-2.957-14.069h0.973l2.639 12.58 3.71-12.362h0.933l3.73 12.362 2.6-12.58z"></path>
  <path fill="#010000" style="fill: var(--color3, #010000)" d="M31.072 13.343c-0.264-0.066-0.589-0.099-0.972-0.099-0.595 0-1.108 0.123-1.538 0.367s-0.758 0.582-0.982 1.012c-0.225 0.43-0.387 0.886-0.486 1.369s-0.149 1.002-0.149 1.557v4.763h-0.993v-9.921h0.873l0.12 2.004c0.211-0.662 0.608-1.177 1.19-1.547s1.237-0.556 1.965-0.556c0.437 0 0.76 0.020 0.972 0.060v0.992z"></path>
  <path fill="#010000" style="fill: var(--color3, #010000)" d="M39.485 17.728v-0.516l-3.552 0.219c-0.741 0.053-1.329 0.264-1.765 0.635s-0.655 0.853-0.655 1.448c0 0.688 0.228 1.217 0.685 1.587s1.055 0.555 1.796 0.555c1.164 0 2.037-0.387 2.619-1.16s0.873-1.697 0.873-2.768v0zM41.529 22.312c-0.238 0.039-0.397 0.059-0.476 0.059-1.046 0-1.568-0.648-1.568-1.944-0.264 0.674-0.728 1.2-1.389 1.577s-1.389 0.566-2.182 0.566c-0.993 0-1.809-0.278-2.451-0.833s-0.962-1.296-0.962-2.223c0-0.86 0.304-1.55 0.913-2.074 0.608-0.522 1.415-0.816 2.421-0.883l3.651-0.258v-0.973c0-1.508-0.873-2.262-2.619-2.262-0.82 0-1.488 0.185-2.004 0.555s-0.801 0.913-0.853 1.627h-0.992c0.066-0.979 0.449-1.743 1.151-2.292s1.6-0.824 2.698-0.824c0.754 0 1.439 0.146 2.053 0.437s1.049 0.754 1.3 1.389c0.172 0.45 0.258 1.085 0.258 1.905v4.524c0 0.371 0.050 0.642 0.149 0.813s0.307 0.258 0.625 0.258c0.119 0 0.211-0.007 0.278-0.020v0.873z"></path>
  <path fill="#010000" style="fill: var(--color3, #010000)" d="M51.986 17.351c0-1.587-0.437-2.771-1.31-3.551-0.529-0.463-1.185-0.694-1.965-0.694-0.793 0-1.468 0.264-2.024 0.793-0.847 0.834-1.27 1.985-1.27 3.452 0 1.535 0.417 2.692 1.25 3.473 0.542 0.516 1.237 0.773 2.084 0.773 0.859 0 1.567-0.29 2.123-0.872 0.741-0.794 1.112-1.918 1.112-3.374zM52.998 17.331c0 1.825-0.516 3.227-1.548 4.207-0.714 0.687-1.614 1.031-2.698 1.031-0.702 0-1.363-0.178-1.985-0.536s-1.064-0.821-1.33-1.389v5.636h-0.992v-13.89h0.873l0.119 1.746c0.265-0.595 0.708-1.078 1.33-1.449 0.622-0.37 1.277-0.555 1.965-0.555 1.058 0 1.938 0.312 2.639 0.933 1.085 0.952 1.628 2.375 1.628 4.266z"></path>
  <path fill="#010000" style="fill: var(--color3, #010000)" d="M60.538 22.213c-0.741 0.159-1.29 0.238-1.647 0.238-1.706 0-2.559-0.966-2.559-2.898v-6.25h-1.985v-0.913h1.985v-2.739l0.992-0.238v2.977h3.076v0.913h-3.076v6.21c0 0.648 0.119 1.145 0.357 1.488s0.668 0.516 1.29 0.516c0.397 0 0.92-0.060 1.567-0.179v0.873z"></path>
</symbol>


<symbol id="icon-caret-right" viewBox="0 0 20 20">
<title>icon-caret-right</title>
<path class="path1" d="M13.25 10l-7.141-7.42c-0.268-0.27-0.268-0.707 0-0.979 0.268-0.27 0.701-0.27 0.969 0l7.83 7.908c0.268 0.271 0.268 0.709 0 0.979l-7.83 7.908c-0.268 0.271-0.701 0.27-0.969 0s-0.268-0.707 0-0.979l7.141-7.417z"></path>
</symbol>

<symbol id="icon-caret-left" viewBox="0 0 20 20">
<title>icon-caret-left</title>
<path class="path1" d="M13.891 17.418c0.268 0.272 0.268 0.709 0 0.979s-0.701 0.271-0.969 0l-7.83-7.908c-0.268-0.27-0.268-0.707 0-0.979l7.83-7.908c0.268-0.27 0.701-0.27 0.969 0s0.268 0.709 0 0.979l-7.141 7.419 7.141 7.418z"></path>
</symbol>
<symbol id="icon-close" viewBox="0 0 20 20">
  <path stroke="currentColor" class="st0" d="M-.04.666L.665-.04 19.97 19.262l-.707.707z"/><path stroke="currentColor" class="st0" d="M-.04 19.334L19.262.03l.707.707L.666 20.04z"/>
</symbol>

<symbol id="icon-dislike" viewBox="0 0 34 32">
<title>icon-dislike</title>
<path class="path1" fill="none" opacity="0.7" stroke="currentColor" stroke-width="1.6" stroke-miterlimit="4" stroke-linecap="round" stroke-linejoin="round" d="M19.234 20.545h10.775c0.96 0 1.747-0.786 1.747-1.747l-3.496-14.85c0-0.961-0.786-1.747-1.747-1.747h-14.85c-0.96 0-1.747 0.786-1.747 1.747v14.85c0 0.961 0.785 2.309 1.894 3.349l8.242 7.274c0.426 0.606 1.271 0.752 1.877 0.326s0.754-1.27 0.328-1.876l-3.385-7.4"></path>
<path class="path2" fill="none" opacity="0.7" stroke="currentColor" stroke-width="1.6" stroke-miterlimit="4" stroke-linecap="round" stroke-linejoin="round" d="M5.513 21.78h-2.113c-0.66 0-1.2-0.54-1.2-1.2v-17.179c0-0.66 0.54-1.2 1.2-1.2h2.113c0.66 0 1.2 0.54 1.2 1.2v17.179c0 0.66-0.54 1.2-1.2 1.2z"></path>
</symbol>

<symbol id="icon-like" viewBox="0 0 34 32">
<title>ico-like</title>
<path fill="none" opacity="0.696841" stroke="currentColor" stroke-width="1.6" stroke-miterlimit="4" stroke-linecap="round" stroke-linejoin="round" d="M19.234 11.455h10.775c0.96 0 1.747 0.786 1.747 1.747l-3.496 14.85c0 0.961-0.786 1.747-1.747 1.747h-14.85c-0.96 0-1.747-0.786-1.747-1.747v-14.85c0-0.961 0.785-2.309 1.894-3.349l8.242-7.274c0.426-0.606 1.271-0.752 1.877-0.326s0.754 1.27 0.328 1.876l-3.385 7.4"></path>
<path fill="none" opacity="0.696841" stroke="currentColor" stroke-width="1.6" stroke-miterlimit="4" stroke-linecap="round" stroke-linejoin="round" d="M5.513 10.22h-2.113c-0.66 0-1.2 0.54-1.2 1.2v17.179c0 0.66 0.54 1.2 1.2 1.2h2.113c0.66 0 1.2-0.54 1.2-1.2v-17.179c0-0.66-0.54-1.2-1.2-1.2z"></path>
</symbol>

</defs>
</svg>
