<svg xmlns="http://www.w3.org/2000/svg" viewBox="0 0 350 350"><defs><style>.a{fill:none;stroke:#92a7ce;stroke-miterlimit:10;stroke-width:9.57px;}</style></defs><title>Wrapt-WebIcons_About</title><path class="a" d="M310.23,257c-.12-2.83-3.43-7.13-6.82-9.6-3.21-2.34-6.84-3.87-10.41-5.54-6.52-3.05-13.36-5.37-19.88-8.44a148,148,0,0,1-21-12.24c-3.27-2.25-6.55-2.61-10.07-.63-3.07,1.73-6.12,3.49-9.26,5.08a41.59,41.59,0,0,1-16,4.53c-9.73.68-18.27-2.42-26-7.83-8.1-5.64-14.62-12.79-20.41-20.55-15.18-20.35-30.08-40.89-45-61.43-10.32-14.21-20.51-28.51-32.19-41.73-5.75-6.51-12-12.56-19.45-17.28L66.29,76.6a5.34,5.34,0,0,0-6.13.32,31.18,31.18,0,0,0-6.48,7.38,114.29,114.29,0,0,0-9.78,17.21c-4.89,11.06-5.3,22.32-2.08,33.85.74,2.68,1.59,5.31,2.49,7.93,2.52,7.34,5.52,14.5,8.37,21.72,4.63,11.78,8.51,23.75,10.43,36.25.94,6.09,1.48,12.21,1.81,18.35.54,10,.66,40.94.68,48.24a1.59,1.59,0,0,0,1.61,1.56l11,0a1.6,1.6,0,0,0,1.64-1.58c0-1.84,0-4.79,0-6.2.2-9.05.36-18.1.65-27.15q.5-15.19.85-30.39c.19-8.41-.41-9.81-.41-18.23,0-4.1,3.51-8.08,6.24-8.95,2.91-.78,4.15-.67,5.62.22.88.54,1.83,1.36,3.27,2.44a118.33,118.33,0,0,1,26.11,27.91,347.58,347.58,0,0,1,25.14,43.7,62.48,62.48,0,0,0,7.14,11.64c4.83,6,11.44,8.81,18.93,10.09a73.2,73.2,0,0,0,11.82,1.1,13,13,0,0,1,1.38.17H197c2.58-.14,5.16-.31,7.74-.42,8.07-.33,16.13-.91,24.18-1.61,7.71-.68,15.42-1.28,23.12-2,8-.74,16-1.58,24.06-2.36l23.36-2.26c2.6-.25,5.19-.55,7.78-.78a1.68,1.68,0,0,0,1.42-.93C309.32,262.75,310.41,261.13,310.23,257Z"/></svg>