<svg xmlns="http://www.w3.org/2000/svg" viewBox="0 0 350 350"><defs><style>.a{fill:#92a7ce;}</style></defs><title>Wrapt-WebIcons_About</title><path class="a" d="M266.36,269.16l-11-122.75c-1.22-9.88-7.13-16-15.41-16,0,0-8.24.1-8.7.24-4.83-43.44-27.27-74.38-56-74.38-29.06,0-51.78,30.94-56.68,74.36-.44-.13-8.64-.22-8.64-.22-8.28,0-14.18,6.14-15.44,16.24L83.65,269c-.91,7.35,1,14.28,5.16,19a16.33,16.33,0,0,0,12.35,5.69H248.84a16.33,16.33,0,0,0,12.35-5.69C265.36,283.34,267.24,276.46,266.36,269.16ZM211.2,137.74C209.65,102,195,78.29,175.48,78.29c-18.47,0-34.3,26.37-37.21,59.45C138.35,137.89,211.2,137.74,211.2,137.74Zm-87.13,23c-6.43-4-14.35-17.83-16.14-21.42-1.16-2.32,14.54-1.39,19.13-1.2,3.1-44.14,23.59-73.33,48.42-73.33s44.15,30.62,46.89,73.33c3.73,0,20.15-1,19.07,2-2.19,6.17-7.22,16.29-16.64,20.62S130.5,164.83,124.07,160.79Zm77.73-30.37-.3,0h-53a2.4,2.4,0,0,0-.28,0c4.06-25.76,16.3-43.94,27.11-43.94S197.93,104.38,201.8,130.42ZM254,281.73a6.74,6.74,0,0,1-5.18,2.45H101.16A6.74,6.74,0,0,1,96,281.73c-2.34-2.65-3.4-7-2.82-11.73l10.58-120.07c3.54,6.63,7.55,10.92,13.75,17.94,6.51,7.35,105.36,7.45,113.59.4,6.49-5.57,10.9-10.09,14.94-17.54L256.84,270a1.64,1.64,0,0,0,0,.22C257.42,274.78,256.36,279.08,254,281.73Zm-115.4-130.5a6.88,6.88,0,1,1-6.88-6.88A6.88,6.88,0,0,1,138.62,151.23Zm85.88,0a6.88,6.88,0,1,1-6.87-6.88A6.87,6.87,0,0,1,224.5,151.23Z"/></svg>