<svg xmlns="http://www.w3.org/2000/svg" viewBox="0 0 350 350"><defs><style>.a{fill:#92a7ce;}</style></defs><title>Wrapt-WebIcons_About</title><path class="a" d="M275.16,97.83l-25.36-5.4-5.41-27.81a4,4,0,0,0-7.9,0l-5.42,27.84-26.45,5.38a4,4,0,0,0,0,7.85l26.5,5.4,5.4,24.11a4,4,0,0,0,7.84,0l5.4-24.09,25.37-5.39a4,4,0,0,0,0-7.89Zm-32.68,9-1.81,16.58-2.26-16.54a4,4,0,0,0-3-3l-18.62-2.13,18.65-1.94a4,4,0,0,0,3.06-3.15l2-18.63,1.95,18.66a4,4,0,0,0,3.18,3.18l22.57,1.88-22.54,2.07A4,4,0,0,0,242.48,106.81Z"/><path class="a" d="M267,151.38c0-13.63-3.46-30.66-7.7-38a4.58,4.58,0,0,0-3.92-2.37,4,4,0,0,0-3.49,2,4.44,4.44,0,0,0,.29,4.55c3.92,6.49,6.78,20.68,6.78,33.74a89.92,89.92,0,0,1-36.1,71.83H115.76A89.63,89.63,0,0,1,169.31,61.69c23.07,0,39.58,6.09,57,21A3.28,3.28,0,0,0,229.55,84a3.13,3.13,0,0,0,2.23-2.35c.43-1.6.06-4.29-2.39-6.58-14.79-13.81-36.12-21.41-60.08-21.41a97.67,97.67,0,0,0-66.13,169.57H95.06a17.88,17.88,0,0,0-1.52,35.69C91,266.29,83.1,288.65,82.07,291.78a3.18,3.18,0,0,0,.45,2.91A4.39,4.39,0,0,0,86,296.36H257.08a4.5,4.5,0,0,0,3.72-1.78,3,3,0,0,0,.14-3c-.48-1-7.55-19.59-12.65-33.05,7.75-1.61,13.16-8.6,13.16-17.45,0-10.23-7.34-17.58-17.83-17.87-3.45-.1-6-.14-8-.13A97.34,97.34,0,0,0,267,151.38Zm-23.44,99.53H95.06a9.83,9.83,0,1,1,0-19.66H243.57a9.83,9.83,0,1,1,0,19.66Zm-142.18,8H240l11.48,29.52-160.13.3Z"/><path class="a" d="M102.11,173.88A4,4,0,0,0,94.7,177a98.21,98.21,0,0,0,29,38.24,4,4,0,0,0,2.51.89l.45,0a4,4,0,0,0,2.7-1.48,4,4,0,0,0-.63-5.65A90.14,90.14,0,0,1,102.11,173.88Z"/></svg>