<?xml version="1.0" encoding="UTF-8"?>
<svg width="47px" height="50px" viewBox="0 0 47 50" version="1.1" xmlns="http://www.w3.org/2000/svg" xmlns:xlink="http://www.w3.org/1999/xlink">
    <!-- Generator: Sketch 46.2 (44496) - http://www.bohemiancoding.com/sketch -->
    <title>ico-ball</title>
    <desc>Created with Sketch.</desc>
    <defs></defs>
    <g id="External" stroke="none" stroke-width="1" fill="none" fill-rule="evenodd">
        <g id="Science-of-Gifting-Page" transform="translate(-701.000000, -524.000000)">
            <g id="Section:-Body" transform="translate(155.000000, 137.000000)">
                <g id="Callout---Singles" transform="translate(2.000000, 343.000000)">
                    <g id="#2" transform="translate(406.000000, 45.000000)">
                        <g id="ico-ball" transform="translate(139.000000, 0.000000)">
                            <path d="M35.8302954,46 L2.16970465,46 C1.52636709,46 1,45.5048597 1,44.8996882 L1,41.1003118 C1,40.4951403 1.52636709,40 2.16970465,40 L35.8302954,40 C36.4736329,40 37,40.4951403 37,41.1003118 L37,44.8996882 C37,45.5048597 36.4736329,46 35.8302954,46 Z" id="Stroke-1" fill="#D2DAE9"></path>
                            <path d="M3,39 L3,37.0344828 C3,36.4655172 3.52310836,36 4.16246301,36 L34.837537,36 C35.4768916,36 36,36.4655172 36,37.0344828 L36,39" id="Stroke-3" fill="#D2DAE9"></path>
                            <path d="M4.17563218,34.8603446 C1.56309579,31.6087022 0,27.4795585 0,22.9849833 C0,12.5003566 8.50617625,4 19.0005824,4 C29.4938238,4 38,12.5003566 38,22.9849833 C38,27.5435672 36.3914789,31.7274092 33.711387,35" id="Stroke-5" fill="#D2DAE9"></path>
                            <path d="M41.7770528,47 C41.9780913,47 42.1392405,46.8418202 42.1392405,46.6629123 L42.1392405,42.0459485 C42.1392405,41.8670406 41.9780913,41.7088608 41.7770528,41.7088608 L2.57737757,41.7088608 C2.37633909,41.7088608 2.21518987,41.8670406 2.21518987,42.0459485 L2.21518987,46.6629123 C2.21518987,46.8418202 2.37633909,47 2.57737757,47 L41.7770528,47 Z M41.7770528,49 L2.57737757,49 C1.28000959,49 0.215189873,47.9548009 0.215189873,46.6629123 L0.215189873,42.0459485 C0.215189873,40.7540599 1.28000959,39.7088608 2.57737757,39.7088608 L41.7770528,39.7088608 C43.0744208,39.7088608 44.1392405,40.7540599 44.1392405,42.0459485 L44.1392405,46.6629123 C44.1392405,47.9548009 43.0744208,49 41.7770528,49 Z" id="Stroke-1" fill="#819AC4" fill-rule="nonzero"></path>
                            <path d="M4.03797468,40.1012658 L4.03797468,37.7127892 C4.03797468,37.5899503 4.18198048,37.4556962 4.38637827,37.4556962 L39.9680521,37.4556962 C40.1724499,37.4556962 40.3164557,37.5899503 40.3164557,37.7127892 L40.3164557,40.1012658 C40.3164557,40.6535506 40.7641709,41.1012658 41.3164557,41.1012658 C41.8687404,41.1012658 42.3164557,40.6535506 42.3164557,40.1012658 L42.3164557,37.7127892 C42.3164557,36.4528258 41.2468983,35.4556962 39.9680521,35.4556962 L4.38637827,35.4556962 C3.10753212,35.4556962 2.03797468,36.4528258 2.03797468,37.7127892 L2.03797468,40.1012658 C2.03797468,40.6535506 2.48568993,41.1012658 3.03797468,41.1012658 C3.59025943,41.1012658 4.03797468,40.6535506 4.03797468,40.1012658 Z" id="Stroke-3" fill="#819AC4" fill-rule="nonzero"></path>
                            <path d="M5.65058175,35.0567253 C2.65724117,31.3656949 1,26.7867715 1,21.9540517 C1,10.3838244 10.4791004,1 22.177895,1 C33.8755309,1 43.3544304,10.3840229 43.3544304,21.9540517 C43.3544304,26.8548983 41.6492218,31.4954753 38.5779083,35.2109748 C38.226033,35.6366533 38.2858625,36.2669852 38.711541,36.6188605 C39.1372196,36.9707358 39.7675515,36.9109064 40.1194268,36.4852278 C43.4841081,32.4148286 45.3544304,27.3249092 45.3544304,21.9540517 C45.3544304,9.27492468 34.9756217,-1 22.177895,-1 C9.37902827,-1 -1,9.27470699 -1,21.9540517 C-1,27.2502012 0.817786401,32.2727077 4.09719651,36.316485 C4.44506953,36.7454404 5.07481345,36.8111708 5.50376894,36.4632978 C5.93272443,36.1154248 5.99845476,35.4856808 5.65058175,35.0567253 Z" id="Stroke-5" fill="#819AC4" fill-rule="nonzero"></path>
                            <path d="M5.16934732,19.2658212 C4.73062222,20.1859763 3.35762199,19.93669 3.27036848,18.9210365 C3.26713083,18.8819312 3.26411163,18.8362782 3.2609554,18.7665819 C3.22670754,18.0103164 3.28672577,17.0185064 3.51473287,15.8731627 C3.857841,14.1496342 4.51959629,12.445815 5.57611559,10.8513888 C5.99542335,10.2185984 6.47160407,9.61277938 7.00733629,9.0376833 C7.75832619,8.23167965 8.59930825,7.552858 9.51315402,6.99210026 C10.8801861,6.1532565 12.3386505,5.61611702 13.796485,5.31764602 C14.6775025,5.13727017 15.3736319,5.07607298 15.7971766,5.07594941 C16.8109226,5.07565365 17.1816457,6.41021564 16.3129914,6.93282508 C11.8938358,9.59152639 7.34250426,14.7079749 5.16934732,19.2658212 Z M11.0221121,8.42849441 C10.8663796,8.51359351 10.7119977,8.60297703 10.5591712,8.69675507 C9.79565994,9.16526395 9.09545864,9.73045056 8.47067584,10.4010018 C8.01059759,10.8948851 7.60243212,11.414172 7.24331354,11.956129 C6.89955538,12.4749052 6.60443735,13.0076512 6.35445934,13.5500884 C7.72527806,11.7228699 9.32461998,9.96318793 11.0221121,8.42849441 Z" id="Stroke-7" fill="#819AC4" fill-rule="nonzero"></path>
                            <polygon id="Fill-9" fill="#FFFFFF" points="41.2457537 6.19437514 44.3544304 7.59559954 41.0548585 8.59249712 39.7981312 12.1518987 38.8038849 8.69987572 35.2405063 7.59559954 38.611664 6.24209896 39.7981312 3.03797468"></polygon>
                            <path d="M40.8348234,7.10604187 C40.6144725,7.00671954 40.4375513,6.83095054 40.3367914,6.61125331 L39.8966727,5.65161735 L39.5494361,6.58935014 C39.4514326,6.85401434 39.2461554,7.0649431 38.9842498,7.17009671 L38.226921,7.4741599 L39.0998929,7.74469026 C39.4216536,7.84440257 39.6715908,8.09941004 39.7648218,8.42310818 L39.894813,8.87443754 L40.111907,8.25956679 C40.2179516,7.95921891 40.4607345,7.7273549 40.7656411,7.63523368 L41.5099545,7.41035472 L40.8348234,7.10604187 Z M44.7653608,6.68393281 C45.6080373,7.06376612 45.5284705,8.28553204 44.6436478,8.55286298 L41.8291159,9.40321571 L40.7410826,12.4848291 C40.4171251,13.402367 39.1065027,13.363705 38.8371943,12.4286663 L37.9923293,9.49529513 L34.9444983,8.550785 C34.0451967,8.27209516 33.9942159,7.0183892 34.8679205,6.66760179 L37.8277925,5.47923009 L38.860359,2.69072351 C39.1698527,1.85491778 40.3355437,1.81096801 40.7070936,2.62109652 L41.9984409,5.436754 L44.7653608,6.68393281 Z" id="Stroke-11" fill="#C6B192" fill-rule="nonzero"></path>
                        </g>
                    </g>
                </g>
            </g>
        </g>
    </g>
</svg>