<?xml version="1.0" encoding="UTF-8"?>
<svg width="47px" height="50px" viewBox="0 0 47 50" version="1.1" xmlns="http://www.w3.org/2000/svg" xmlns:xlink="http://www.w3.org/1999/xlink">
    <!-- Generator: Sketch 46.2 (44496) - http://www.bohemiancoding.com/sketch -->
    <title>ico-shopping</title>
    <desc>Created with Sketch.</desc>
    <defs></defs>
    <g id="External" stroke="none" stroke-width="1" fill="none" fill-rule="evenodd">
        <g id="Science-of-Gifting-Page" transform="translate(-1094.000000, -524.000000)">
            <g id="Section:-Body" transform="translate(155.000000, 137.000000)">
                <g id="Callout---Singles" transform="translate(2.000000, 343.000000)">
                    <g id="Group-2" transform="translate(801.000000, 45.000000)">
                        <g id="#3">
                            <g id="ico-shopping" transform="translate(137.000000, 0.000000)">
                                <path d="M40.8508229,46.3999993 L4.94917636,46.3999993 C4.42618018,46.3999993 4,45.9711001 4,45.44689 L5.89835271,14.9531094 C5.89835271,14.4288992 6.3245329,14 6.84752907,14 L38.0032938,14 C38.5253408,14 38.9524702,14.4288992 38.9524702,14.9531094 L41.7999992,45.44689 C41.7999992,45.9711001 41.3728699,46.3999993 40.8508229,46.3999993 Z" id="Stroke-1" fill="#D5DDEB"></path>
                                <path d="M43.6750502,47 C43.7405601,47 43.8,46.9403138 43.8043317,46.963365 L40.4251507,10.7296111 C40.4251507,10.6596862 40.3657107,10.6 40.3002009,10.6 L3.37484934,10.6 C3.30875764,10.6 3.24989956,10.6591428 3.24796741,10.7917446 L1,46.8703889 C1,46.9408572 1.05885808,47 1.12494978,47 L43.6750502,47 Z M43.6750502,49 L1.12494978,49 C-0.0478773529,49 -1,48.0432723 -0.998067849,46.8082554 L1.24989956,10.7296111 C1.24989956,9.55672766 2.20202221,8.6 3.37484934,8.6 L40.3002009,8.6 C41.4721358,8.6 42.4251507,9.55696378 42.420819,10.636635 L45.8,46.8703889 C45.8,48.0430362 44.8469851,49 43.6750502,49 Z" id="Stroke-1" fill="#819AC4" fill-rule="nonzero"></path>
                                <path d="M1.28,20 L42.24,20 C42.7922847,20 43.24,19.5522847 43.24,19 C43.24,18.4477153 42.7922847,18 42.24,18 L1.28,18 C0.72771525,18 0.28,18.4477153 0.28,19 C0.28,19.5522847 0.72771525,20 1.28,20 Z" id="Stroke-3" fill="#819AC4" fill-rule="nonzero"></path>
                                <path d="M8.04,14.72 C8.04,15.2280326 8.45209125,15.64 8.9605771,15.64 C9.46865684,15.64 9.88,15.2284388 9.88,14.72 C9.88,14.2115612 9.46865684,13.8 8.9605771,13.8 C8.45209125,13.8 8.04,14.2119674 8.04,14.72 Z M6.04,14.72 C6.04,13.1072633 7.34765627,11.8 8.9605771,11.8 C10.5734637,11.8 11.88,13.107229 11.88,14.72 C11.88,16.332771 10.5734637,17.64 8.9605771,17.64 C7.34765627,17.64 6.04,16.3327367 6.04,14.72 Z" id="Stroke-7" fill="#819AC4" fill-rule="nonzero"></path>
                                <path d="M34.28,14.72 C34.28,15.2280326 34.6920912,15.64 35.2005771,15.64 C35.7086568,15.64 36.12,15.2284388 36.12,14.72 C36.12,14.2115612 35.7086568,13.8 35.2005771,13.8 C34.6920912,13.8 34.28,14.2119674 34.28,14.72 Z M32.28,14.72 C32.28,13.1072633 33.5876563,11.8 35.2005771,11.8 C36.8134637,11.8 38.12,13.107229 38.12,14.72 C38.12,16.332771 36.8134637,17.64 35.2005771,17.64 C33.5876563,17.64 32.28,16.3327367 32.28,14.72 Z" id="Stroke-9" fill="#819AC4" fill-rule="nonzero"></path>
                                <path d="M9.96,13.44 C9.96,6.56941364 15.5291755,1 22.3994253,1 C29.2699208,1 34.84,6.56965931 34.84,13.44 C34.84,13.9922847 35.2877153,14.44 35.84,14.44 C36.3922847,14.44 36.84,13.9922847 36.84,13.44 C36.84,5.46505606 30.3744566,-1 22.3994253,-1 C14.4245869,-1 7.96,5.46486328 7.96,13.44 C7.96,13.9922847 8.40771525,14.44 8.96,14.44 C9.51228475,14.44 9.96,13.9922847 9.96,13.44 Z" id="Stroke-5" fill="#C6B192" fill-rule="nonzero"></path>
                            </g>
                        </g>
                    </g>
                </g>
            </g>
        </g>
    </g>
</svg>