<?xml version="1.0" encoding="UTF-8"?>
<svg width="67px" height="49px" viewBox="0 0 67 49" version="1.1" xmlns="http://www.w3.org/2000/svg" xmlns:xlink="http://www.w3.org/1999/xlink">
    <!-- Generator: Sketch 46.2 (44496) - http://www.bohemiancoding.com/sketch -->
    <title>shoe</title>
    <desc>Created with Sketch.</desc>
    <defs></defs>
    <g id="External" stroke="none" stroke-width="1" fill="none" fill-rule="evenodd">
        <g id="Science-of-Gifting-Page" transform="translate(-305.000000, -535.000000)">
            <g id="Section:-Body" transform="translate(155.000000, 137.000000)">
                <g id="Callout---Singles" transform="translate(2.000000, 343.000000)">
                    <g id="#1" transform="translate(19.000000, 55.000000)">
                        <g id="ico-shoes" transform="translate(128.000000, 0.000000)">
                            <g id="shoe" transform="translate(2.000000, 1.000000)">
                                <path d="M17.6478209,3.2796183 C18.2957211,3.60660868 18.9702181,3.95377268 19.6897893,4.329886 C20.1523025,4.57163746 23.6623729,6.4475369 25.7853979,7.56039519 C22.3544227,4.114711 18.4624646,2.12793979 14.3532294,1.35272443 C13.9717645,1.28076031 13.5895906,1.22087207 13.2100396,1.17207786 C14.5250068,1.74286529 16.0001759,2.44806424 17.6478209,3.2796183 Z M6.19483737,-0.471509091 C7.67254781,-0.832487928 9.94851987,-0.243649004 13.2100396,1.17207786 C10.5625107,0.83171761 8.04260098,1.03115456 6.78112124,1.43715327 C6.6443249,1.48118024 6.52232706,1.52763627 6.41656973,1.57609642 L5.58343027,-0.242111117 C5.76185732,-0.323869999 5.966665,-0.400608705 6.19483737,-0.471509091 C8.04089439,-1.04513753 11.4163614,-1.23659997 14.7239934,-0.612608641 C20.1795724,0.416597146 25.2800171,3.39700063 29.4998943,8.74593811 C29.8379174,9.17437241 30.0106868,9.49145292 29.9995959,9.9120209 C29.975474,10.8267281 29.2630733,11.0865741 28.5687407,10.978489 C28.0923031,10.9043231 27.4024563,10.6189999 26.323057,10.0877998 C25.1380674,9.504636 19.3377583,6.40261101 18.7633315,6.10236335 C18.0517509,5.73042665 17.3855807,5.38754845 16.7466973,5.06510877 C11.6559448,2.49584425 8.08194142,1.19160748 6.78112124,1.43715327 C6.66885714,1.45834449 6.57352401,1.4910787 6.49560807,1.53553893 L5.50439193,-0.201553632 C5.71171655,-0.319856769 5.94155065,-0.409635572 6.19483737,-0.471509091 Z" id="Stroke-5" fill="#C6B192" fill-rule="nonzero"></path>
                                <path d="M8.52024093,6 C8.52024093,6 16.702442,9.8941668 18.6461101,16.2674553 C20.9247331,23.7392657 20.2213281,27.3867305 21.0977931,29.9421902 C22.599507,34.3204514 24.8809213,36.5035308 27.1065097,38.4622511 C29.4846887,40.5559592 40.8042996,34.3697918 40.8042996,34.3697918 C40.8042996,34.3697918 48.1072443,38.313299 49.9494956,38.5255557 C50.3998237,38.577689 48.4970944,43.1542426 49.4610199,43.412116 C52.4458392,44.2080788 58.4973556,43.3162281 58.4973556,43.3162281 L60,44.6633137 C60,44.6633137 38.3191212,47 32.1243185,47 C25.9304463,47 25.0353727,38.9277264 20.9182201,33.1921391 C16.8001371,27.4565518 14.6927133,26.5004655 14.6927133,26.5004655 L11.2798962,26.5004655 L11.2798962,45.9377852 L8.52024093,45.9377852 C8.52024093,45.9377852 9.36972348,34.8334052 6.6091378,25.7268454 C3.84855212,16.6212166 3,13.893531 3,13.893531 C3,13.893531 5.76058568,6 8.52024093,6" id="Fill-1" fill="#D2DAE9"></path>
                                <path d="M19.6914038,27.7688333 C19.3559952,26.785764 19.2072449,25.8183484 19.0356048,23.9115153 C18.5652239,18.6858251 18.2236223,16.4724375 16.8851232,12.0603212 C16.0933654,9.45050856 14.2462915,7.00092151 11.6513925,4.77392188 C10.382364,3.68481362 9.01846547,2.721484 7.65474471,1.89639412 C7.17802541,1.60796538 6.73620991,1.3578644 6.34114917,1.14742051 C6.25204385,1.09995523 6.17316843,1.05862795 6.10518138,1.02350888 C5.26642507,1.2229267 4.05751863,2.68034568 2.85395592,4.98694335 C2.35376559,5.94554555 1.88689739,6.97790349 1.46764348,8.01089521 C1.32075506,8.37281079 1.19048035,8.70854545 1.07843669,9.00913884 C1.08284705,9.16730557 1.11682797,9.27799182 1.15644207,9.40717601 C1.33151848,9.97811158 1.55577482,10.7121191 1.833951,11.6255523 C2.62849979,14.2345724 3.69557666,17.7574421 5.07309812,22.3249845 C5.54575188,23.8923552 5.9428942,25.5590532 6.2696734,27.3122747 C7.35099917,33.1137564 7.59314554,39.207038 7.36439313,44.5433207 C7.36088753,44.6250985 7.35732425,44.7047834 7.35371572,44.7823392 L8.44198688,44.7823392 L8.44198688,23.5005336 C8.44198688,22.9482488 8.88970213,22.5005336 9.44198688,22.5005336 L13.3337958,22.5005336 C13.4769693,22.5005336 13.6184735,22.5312776 13.7487395,22.5906865 C14.1509622,22.7741236 14.8352897,23.2449281 15.8004942,24.1354227 C17.0795747,25.3154985 18.5504907,26.9705436 20.2128671,29.1791132 C20.0327763,28.730615 19.8596004,28.2617881 19.6914038,27.7688333 Z M52.7221625,43.8527485 C51.3325603,43.4790434 51.4023952,42.4444026 52.0465895,39.8513567 C52.0852045,39.6959215 52.1266046,39.5338238 52.1749956,39.3478087 C52.201923,39.2442995 52.360117,38.6429833 52.4012509,38.4833486 C52.4423821,38.3237243 52.4765259,38.1872922 52.504982,38.0681018 C51.4781122,37.7537605 50.0091399,37.1189909 48.1292861,36.2144177 C47.8555422,36.082694 47.5755222,35.9462759 47.289926,35.8055916 C46.2214294,35.2792516 45.1203289,34.7160044 44.047576,34.1528278 C43.708525,33.974832 43.3941484,33.8082796 43.1101037,33.6565939 C42.785186,33.8288959 42.4197081,34.0191176 42.0195978,34.2229857 C40.8119034,34.838342 39.534214,35.4536637 38.2418835,36.0287348 C37.2645256,36.463647 36.3158034,36.8586531 35.4079816,37.2045404 C31.2039348,38.8063157 28.3088682,39.2730154 26.8272641,37.9617842 C25.68711,36.9530736 24.7168179,36.0202179 23.8758559,35.0836606 C23.9323679,35.1967314 23.9892223,35.311339 24.046467,35.4275493 C24.416196,36.178121 25.6452772,38.775141 25.6100933,38.7017573 C28.1849896,44.0722709 29.9636151,46 33.2119422,46 C35.8073633,46 41.0336492,45.6330068 48.0839148,44.9964768 C49.2413689,44.8919766 50.4356777,44.7812732 51.6606882,44.6651432 C53.0732958,44.5312291 54.497524,44.3929305 55.9174942,44.2522533 C54.6652398,44.2125754 53.5902403,44.0854555 52.7221625,43.8527485 Z M62.9618999,43.8308083 C63.179347,43.8025334 63.3391792,43.7802436 63.4330092,43.7663426 L62.6170068,43.5199953 L64.3305486,45.0642155 L64.8922878,43.3271775 C64.8444829,43.3323569 64.8444829,43.3323569 64.6139077,43.3571516 C64.2971227,43.3910998 64.1196931,43.410043 63.8182693,43.4420469 C63.4749435,43.4784997 63.1140885,43.5166144 62.7370154,43.5562254 C62.713254,43.5587215 62.6894283,43.5612235 62.6655384,43.5637314 C62.1173297,43.6212819 61.5353813,43.6819392 60.9236569,43.7452023 C59.2785632,43.9153341 57.6010214,44.0854654 55.9174942,44.2522533 C56.3323138,44.265397 56.7665839,44.2689454 57.2192262,44.2635582 C58.5336571,44.2479143 59.934391,44.1574811 61.3413254,44.0165565 C61.8844972,43.9621501 62.3912258,43.9038391 62.8482699,43.8454518 C62.8877249,43.8404114 62.9256146,43.8355265 62.9618999,43.8308083 Z M10.4419869,24.5005336 L10.4419869,45.7823392 C10.4419869,46.3346239 9.99427163,46.7823392 9.44198688,46.7823392 L6.29501159,46.7823392 C5.71282634,46.7823392 5.25371812,46.2869653 5.29789468,45.7064586 C5.30190056,45.6538188 5.30923544,45.5467597 5.31880354,45.3885384 C5.33493192,45.1218342 5.35110497,44.8104561 5.36622821,44.4576646 C5.58904754,39.2597875 5.35246021,33.3063917 4.3035341,27.6787392 C3.98950899,25.9939455 3.60904257,24.3972316 3.15827695,22.9024443 C1.78125849,18.3365697 0.714697258,14.8154024 -0.0792947652,12.2082106 C-0.357107877,11.2959696 -0.580990141,10.5631864 -0.755676203,9.99352377 C-0.860362561,9.65213473 -0.925327079,9.44117467 -0.955302301,9.34431262 C-1.01840024,9.14041767 -1.01460623,8.92168307 -0.944475138,8.72009902 C-0.917543428,8.6426868 -0.867423379,8.503268 -0.795609444,8.31060387 C-0.677089224,7.99263503 -0.53991314,7.63911462 -0.385539156,7.25875551 C0.055956659,6.17096241 0.548181176,5.08253553 1.0808242,4.06173856 C2.73233572,0.896658274 4.37750861,-0.996290906 6.28989377,-0.999995043 C6.44437996,-1 6.59185111,-0.966538778 6.72659246,-0.902074249 C6.83311408,-0.851110938 7.02194443,-0.755987452 7.28143787,-0.617758562 C7.70773474,-0.390675576 8.1811463,-0.122688847 8.69005613,0.185216089 C10.1424186,1.06393674 11.5946033,2.08962338 12.9539192,3.25621831 C15.8126684,5.70966004 17.8804289,8.45192139 18.7989899,11.4797056 C20.1868453,16.0545161 20.5458298,18.3805352 21.0275513,23.7322139 C21.1852454,25.4841134 21.3166306,26.3385927 21.5842601,27.1230041 C22.9638517,31.1663464 24.6752676,33.3875117 28.1526183,36.4639737 C28.8004431,37.0373037 31.2777179,36.6379542 34.6959003,35.3355995 C35.5674902,35.0035168 36.483029,34.6223268 37.4287779,34.2014802 C38.6864442,33.6418343 39.933246,33.0413877 41.1116106,32.4409758 C41.5238592,32.2309229 41.8978371,32.0360209 42.2264267,31.8613565 C42.4223821,31.7571948 42.5588286,31.6833893 42.6286708,31.64502 C42.9269628,31.4811471 43.288122,31.4802366 43.5872365,31.6426035 C43.6542281,31.6789683 43.7821706,31.7479498 43.9633302,31.844876 C44.2660852,32.0068596 44.6066309,32.1874668 44.9772195,32.3820193 C46.0358374,32.9377752 47.1221549,33.4934604 48.1737143,34.0114572 C48.4539291,34.1494907 48.7284378,34.2832238 48.9964957,34.4122115 C51.294154,35.5178293 53.0108835,36.2175529 53.6544938,36.2920968 C54.4302875,36.3823801 54.627205,36.9063855 54.6186978,37.502975 C54.6158879,37.700025 54.5833016,37.922078 54.5241626,38.204905 C54.4800185,38.4160204 54.4214506,38.6584911 54.3379878,38.9823978 C54.2953186,39.1479908 54.1363015,39.752436 54.110572,39.8513401 C54.0638928,40.0307753 54.0242387,40.1860367 53.9875887,40.3335621 C53.803175,41.0758741 53.6983286,41.6164655 53.6724491,41.9998844 C54.5787633,42.2024886 55.7801632,42.2805438 57.1954246,42.2636998 C58.4445482,42.2488332 59.7890729,42.162029 61.1419942,42.0265145 C61.6663009,41.9739977 62.1551172,41.917748 62.5948297,41.8615747 C62.8569867,41.8280842 63.0431888,41.8022653 63.1399071,41.7879364 C63.4350379,41.7442126 63.734277,41.8345514 63.9559096,42.0342836 L65.6694514,43.5785038 C66.3113946,44.1570141 65.9668405,45.2224616 65.1077122,45.3155418 C65.0589397,45.3208258 65.0589397,45.3208258 64.827323,45.3457325 C64.5094564,45.3797966 64.331619,45.3987833 64.0294336,45.4308681 C63.1662575,45.5225163 62.1926834,45.6246293 61.129395,45.7345921 C58.0914521,46.0487691 54.9430201,46.3629475 51.8494404,46.6562164 C50.6215512,46.7726194 49.4242843,46.8835969 48.2637524,46.988375 C41.149413,47.6306899 35.8901322,48 33.2119422,48 C28.9216857,48 26.6909753,45.5822874 23.8066609,39.5664141 C23.8357903,39.6271699 22.6138595,37.0452586 22.252331,36.3113343 C21.3287741,34.436459 20.5222604,33.0171987 19.6193054,31.752688 C17.6026608,28.9291887 15.8756032,26.9258833 14.444315,25.6053813 C13.795707,25.0069775 13.3402739,24.6623564 13.0808572,24.5005336 L10.4419869,24.5005336 Z" id="Stroke-3" fill="#7F97BF" fill-rule="nonzero"></path>
                            </g>
                        </g>
                    </g>
                </g>
            </g>
        </g>
    </g>
</svg>