<svg xmlns="http://www.w3.org/2000/svg" viewBox="0 0 91.73 41.11"><defs><style>.cls-1{fill:#90a5cd;}.cls-2{fill:#030202;}</style></defs><title>Asset 2</title><g id="Layer_2" data-name="Layer 2"><g id="Layer_1-2" data-name="Layer 1"><path class="cls-1" d="M90.63,1.09V40H1.09V1.09H90.63M91.73,0H0V41.11H91.73V0Z"/><path class="cls-2" d="M31.3,10.36l-4,18.92H25.8l-5-16.57-5,16.57H14.35l-4-18.92h1.31l3.55,16.92,5-16.62h1.25l5,16.62L30,10.36Z"/><path class="cls-2" d="M41.73,17.22a5.47,5.47,0,0,0-1.31-.13,4.12,4.12,0,0,0-2.07.49A3.3,3.3,0,0,0,37,18.94a7,7,0,0,0-.65,1.84,10.38,10.38,0,0,0-.2,2.09v6.4H34.84V15.94H36l.16,2.69a3.74,3.74,0,0,1,1.6-2.08,4.81,4.81,0,0,1,2.64-.75,7.7,7.7,0,0,1,1.31.08Z"/><path class="cls-2" d="M55.79,29.28a4.93,4.93,0,0,1-.64.08Q53,29.36,53,26.74a4.13,4.13,0,0,1-1.87,2.12,5.83,5.83,0,0,1-2.93.76,4.85,4.85,0,0,1-3.29-1.12,3.75,3.75,0,0,1-1.29-3,3.49,3.49,0,0,1,1.23-2.79,5.4,5.4,0,0,1,3.25-1.19L53,21.2V19.89q0-3-3.52-3a4.51,4.51,0,0,0-2.69.75,2.79,2.79,0,0,0-1.15,2.19H44.34a4.07,4.07,0,0,1,1.55-3.08,5.71,5.71,0,0,1,3.63-1.11,6.38,6.38,0,0,1,2.76.59A3.37,3.37,0,0,1,54,18a7.44,7.44,0,0,1,.35,2.56v6.08a2.27,2.27,0,0,0,.2,1.09.89.89,0,0,0,.84.35,2,2,0,0,0,.37,0ZM53,23.12v-.69l-4.78.29a4,4,0,0,0-2.37.85A2.43,2.43,0,0,0,45,25.52a2.59,2.59,0,0,0,.92,2.13,3.71,3.71,0,0,0,2.42.75,4.13,4.13,0,0,0,3.52-1.56A6,6,0,0,0,53,23.12Z"/><path class="cls-2" d="M71.21,22.58a7.43,7.43,0,0,1-2.08,5.66,5,5,0,0,1-3.63,1.39,5.27,5.27,0,0,1-2.67-.72A4.19,4.19,0,0,1,61,27v7.58H59.71V15.94h1.17L61,18.29a4.27,4.27,0,0,1,1.79-1.95,5.08,5.08,0,0,1,2.64-.75A5.15,5.15,0,0,1,69,16.85,7.23,7.23,0,0,1,71.21,22.58Zm-1.36,0a6.08,6.08,0,0,0-1.76-4.78,3.87,3.87,0,0,0-2.64-.93A3.8,3.8,0,0,0,62.72,18,6.22,6.22,0,0,0,61,22.61a6.09,6.09,0,0,0,1.68,4.67,3.9,3.9,0,0,0,2.8,1,3.77,3.77,0,0,0,2.85-1.17A6.4,6.4,0,0,0,69.85,22.61Z"/><path class="cls-2" d="M81.35,29.15a11.78,11.78,0,0,1-2.21.32q-3.44,0-3.44-3.9v-8.4H73V15.94h2.67V12.26L77,11.94v4h4.13v1.23H77v8.35a3.51,3.51,0,0,0,.48,2,2,2,0,0,0,1.73.69A12.29,12.29,0,0,0,81.35,28Z"/></g></g></svg>