<svg xmlns="http://www.w3.org/2000/svg" xmlns:xlink="http://www.w3.org/1999/xlink" version="1.1" x="0px" y="0px" viewBox="0 0 45.8 20.625" enable-background="new 0 0 45.8 16.5" xml:space="preserve"><g><path d="M40.3,13H4.9c-0.8,0-1.5-0.7-1.5-1.5V4.9c0-0.8,0.7-1.5,1.5-1.5h35.4c0.8,0,1.5,0.7,1.5,1.5v6.6C41.9,12.3,41.2,13,40.3,13   z M4.9,4.3c-0.3,0-0.5,0.2-0.5,0.5v6.6c0,0.3,0.2,0.5,0.5,0.5h35.4c0.3,0,0.5-0.2,0.5-0.5V4.9c0-0.3-0.2-0.5-0.5-0.5H4.9z"/></g><g><rect x="6.1" y="5.4" width="0.5" height="5.4"/></g></svg>